<svg width="271" height="2294" viewBox="0 0 271 2294" fill="none" xmlns="http://www.w3.org/2000/svg">
<line y1="-2" x2="211.173" y2="-2" transform="matrix(-4.37114e-08 1 1 4.37114e-08 8.29419 1005.81)" stroke="white" stroke-opacity="0.94" stroke-width="4"/>
<line x1="8" y1="2071" x2="8.00001" y2="1793" stroke="white" stroke-opacity="0.94" stroke-width="4"/>
<line x1="6.29407" y1="1772.26" x2="6.29408" y2="1561.09" stroke="white" stroke-opacity="0.94" stroke-width="4"/>
<line y1="-2" x2="211.173" y2="-2" transform="matrix(-4.37114e-08 1 1 4.37114e-08 8.29395 1237.3)" stroke="white" stroke-opacity="0.94" stroke-width="4"/>
<line y1="-2" x2="106.325" y2="-2" transform="matrix(0.947153 0.320782 0.9429 -0.333075 6.19592 1214.81)" stroke="white" stroke-opacity="0.94" stroke-width="4"/>
<line y1="-2" x2="106.325" y2="-2" transform="matrix(0.947153 -0.320781 0.9429 0.333075 8.29407 1794.76)" stroke="white" stroke-opacity="0.94" stroke-width="4"/>
<line y1="-2" x2="106.325" y2="-2" transform="matrix(0.947153 -0.320781 0.9429 0.333075 6.19592 1563.26)" stroke="white" stroke-opacity="0.94" stroke-width="4"/>
<line y1="-2" x2="106.325" y2="-2" transform="matrix(0.947153 0.320782 0.9429 -0.333075 6.19592 1446.3)" stroke="white" stroke-opacity="0.94" stroke-width="4"/>
<line y1="-2" x2="48.7504" y2="-2" transform="matrix(-4.37114e-08 1 1 4.37114e-08 106.902 1248.91)" stroke="white" stroke-opacity="0.94" stroke-width="4"/>
<line y1="-2" x2="48.7504" y2="-2" transform="matrix(-4.37114e-08 1 1 4.37114e-08 109 1343.25)" stroke="white" stroke-opacity="0.94" stroke-width="4"/>
<line y1="-2" x2="48.7504" y2="-2" transform="matrix(-4.37114e-08 1 1 4.37114e-08 109 1618.29)" stroke="white" stroke-opacity="0.94" stroke-width="4"/>
<line x1="107" y1="1760.65" x2="107" y2="1711.9" stroke="white" stroke-opacity="0.94" stroke-width="4"/>
<line x1="104.902" y1="1529.16" x2="104.902" y2="1480.41" stroke="white" stroke-opacity="0.94" stroke-width="4"/>
<line x1="4" y1="-8.74228e-08" x2="4.00001" y2="219" stroke="white" stroke-opacity="0.94" stroke-width="4"/>
<line x1="6.29395" y1="1005.94" x2="6.29395" y2="794.768" stroke="white" stroke-opacity="0.94" stroke-width="4"/>
<line x1="4.19617" y1="774.449" x2="4.19618" y2="563.276" stroke="white" stroke-opacity="0.94" stroke-width="4"/>
<line y1="-2" x2="211.173" y2="-2" transform="matrix(-4.37114e-08 1 1 4.37114e-08 6.19617 239.492)" stroke="white" stroke-opacity="0.94" stroke-width="4"/>
<line y1="-2" x2="106.325" y2="-2" transform="matrix(0.947153 -0.320781 0.9429 0.333075 6.19617 796.945)" stroke="white" stroke-opacity="0.94" stroke-width="4"/>
<line y1="-2" x2="106.325" y2="-2" transform="matrix(0.947153 -0.320781 0.9429 0.333075 4.09814 565.453)" stroke="white" stroke-opacity="0.94" stroke-width="4"/>
<line y1="-2" x2="106.325" y2="-2" transform="matrix(0.947153 0.320782 0.9429 -0.333075 4.09814 448.488)" stroke="white" stroke-opacity="0.94" stroke-width="4"/>
<line y1="-2" x2="48.7504" y2="-2" transform="matrix(-4.37114e-08 1 1 4.37114e-08 106.902 620.475)" stroke="white" stroke-opacity="0.94" stroke-width="4"/>
<line x1="104.902" y1="762.838" x2="104.902" y2="714.088" stroke="white" stroke-opacity="0.94" stroke-width="4"/>
<line x1="102.804" y1="531.346" x2="102.804" y2="482.595" stroke="white" stroke-opacity="0.94" stroke-width="4"/>
<line x1="100" y1="2294" x2="100" y2="2103" stroke="white" stroke-opacity="0.94" stroke-width="4"/>
<line x1="101.267" y1="2104.86" x2="7.26747" y2="2067.86" stroke="white" stroke-opacity="0.94" stroke-width="4"/>
<line x1="99" y1="2292" x2="271" y2="2292" stroke="white" stroke-width="4"/>
<line x1="2" y1="2" x2="271" y2="1.99998" stroke="white" stroke-width="4"/>
<line x1="178" y1="61" x2="178" y2="2223" stroke="white" stroke-width="4"/>
</svg>
