<svg width="265" height="2294" viewBox="0 0 265 2294" fill="none" xmlns="http://www.w3.org/2000/svg">
<line x1="258.706" y1="1005.81" x2="258.706" y2="1216.98" stroke="white" stroke-opacity="0.94" stroke-width="4"/>
<line y1="-2" x2="211.173" y2="-2" transform="matrix(-4.37114e-08 -1 -1 4.37114e-08 254.608 2003.75)" stroke="white" stroke-opacity="0.94" stroke-width="4"/>
<line y1="-2" x2="211.173" y2="-2" transform="matrix(-4.37114e-08 -1 -1 4.37114e-08 256.706 1772.26)" stroke="white" stroke-opacity="0.94" stroke-width="4"/>
<line x1="258.706" y1="1237.3" x2="258.706" y2="1448.48" stroke="white" stroke-opacity="0.94" stroke-width="4"/>
<line y1="-2" x2="106.325" y2="-2" transform="matrix(-0.947153 0.320782 -0.9429 -0.333075 258.804 1214.81)" stroke="white" stroke-opacity="0.94" stroke-width="4"/>
<line y1="-2" x2="106.325" y2="-2" transform="matrix(-0.947153 -0.320781 -0.9429 0.333075 258.804 1563.26)" stroke="white" stroke-opacity="0.94" stroke-width="4"/>
<line y1="-2" x2="106.325" y2="-2" transform="matrix(-0.947153 0.320782 -0.9429 -0.333075 258.804 1446.3)" stroke="white" stroke-opacity="0.94" stroke-width="4"/>
<line x1="160.098" y1="1248.91" x2="160.098" y2="1297.66" stroke="white" stroke-opacity="0.94" stroke-width="4"/>
<path d="M158 1343.25L158 1392M158 1599.25L158 1648" stroke="white" stroke-opacity="0.94" stroke-width="4"/>
<line x1="253" y1="2212" x2="253" y2="2035" stroke="white" stroke-opacity="0.94" stroke-width="4"/>
<line y1="-2" x2="48.7504" y2="-2" transform="matrix(-4.37114e-08 -1 -1 4.37114e-08 158.098 1529.16)" stroke="white" stroke-opacity="0.94" stroke-width="4"/>
<line x1="261" y1="-8.74228e-08" x2="261" y2="219" stroke="white" stroke-opacity="0.94" stroke-width="4"/>
<line y1="-2" x2="211.173" y2="-2" transform="matrix(-4.37114e-08 -1 -1 4.37114e-08 256.706 1005.94)" stroke="white" stroke-opacity="0.94" stroke-width="4"/>
<line y1="-2" x2="211.173" y2="-2" transform="matrix(-4.37114e-08 -1 -1 4.37114e-08 258.804 774.449)" stroke="white" stroke-opacity="0.94" stroke-width="4"/>
<line x1="260.804" y1="239.492" x2="260.804" y2="450.665" stroke="white" stroke-opacity="0.94" stroke-width="4"/>
<line y1="-2" x2="106.325" y2="-2" transform="matrix(-0.947153 -0.320781 -0.9429 0.333075 258.804 796.945)" stroke="white" stroke-opacity="0.94" stroke-width="4"/>
<line y1="-2" x2="106.325" y2="-2" transform="matrix(-0.947153 -0.320781 -0.9429 0.333075 260.902 565.453)" stroke="white" stroke-opacity="0.94" stroke-width="4"/>
<line y1="-2" x2="106.325" y2="-2" transform="matrix(-0.947153 0.320782 -0.9429 -0.333075 260.902 448.488)" stroke="white" stroke-opacity="0.94" stroke-width="4"/>
<line x1="160.098" y1="620.475" x2="160.098" y2="669.225" stroke="white" stroke-opacity="0.94" stroke-width="4"/>
<line y1="-2" x2="48.7504" y2="-2" transform="matrix(-4.37114e-08 -1 -1 4.37114e-08 158.098 762.838)" stroke="white" stroke-opacity="0.94" stroke-width="4"/>
<line y1="-2" x2="48.7504" y2="-2" transform="matrix(-4.37114e-08 -1 -1 4.37114e-08 160.196 531.346)" stroke="white" stroke-opacity="0.94" stroke-width="4"/>
<line x1="162" y1="2294" x2="162" y2="2035" stroke="white" stroke-opacity="0.94" stroke-width="4"/>
<line x1="84" y1="50" x2="83.9999" y2="2212" stroke="white" stroke-width="4"/>
<line y1="2" x2="262" y2="2" stroke="white" stroke-width="4"/>
<line y1="2292" x2="164" y2="2292" stroke="white" stroke-width="4"/>
</svg>
