<svg width="1275" height="828" viewBox="0 0 1275 828" fill="none" xmlns="http://www.w3.org/2000/svg">
<g clip-path="url(#clip0_7_1438)">
<path d="M366.675 386.466C367.047 232.214 492.307 108.812 646.559 110.856C630.391 127.025 617.01 265.108 616.638 419.175C462.386 417.131 350.506 402.635 366.675 386.466Z" stroke="#F8F7F7" stroke-width="0.25" stroke-miterlimit="10"/>
<path d="M405.142 245.966C396.965 254.144 390.274 323.836 390.089 401.706" stroke="#F8F7F7" stroke-width="0.25" stroke-miterlimit="10"/>
<path d="M505.499 147.098C491.561 161.036 480.038 280.164 479.667 413.416" stroke="#F8F7F7" stroke-width="0.25" stroke-miterlimit="10"/>
<path d="M366.676 386.463C358.87 261.389 477.44 161.589 631.507 163.634" stroke="#F8F7F7" stroke-width="0.25" stroke-miterlimit="10"/>
<path d="M366.676 386.463C352.738 322.532 466.662 272.354 620.914 274.212" stroke="#F8F7F7" stroke-width="0.25" stroke-miterlimit="10"/>
<path d="M366.673 386.465C350.504 402.634 462.384 417.315 616.636 419.174C616.264 573.426 629.274 685.306 645.442 669.323C491.19 667.279 366.487 540.717 366.673 386.465Z" stroke="#F8F7F7" stroke-width="0.25" stroke-miterlimit="10"/>
<path d="M390.089 401.708C389.903 479.577 396.408 536.075 404.585 527.897" stroke="#F8F7F7" stroke-width="0.25" stroke-miterlimit="10"/>
<path d="M479.668 413.413C479.482 546.665 490.633 643.305 504.571 629.366" stroke="#F8F7F7" stroke-width="0.25" stroke-miterlimit="10"/>
<path d="M366.677 386.465C352.553 478.273 466.105 554.098 620.357 556.143" stroke="#F8F7F7" stroke-width="0.25" stroke-miterlimit="10"/>
<path d="M366.674 386.465C358.311 527.708 476.509 643.862 630.575 645.906" stroke="#F8F7F7" stroke-width="0.25" stroke-miterlimit="10"/>
<path d="M366.672 386.463C366.301 540.716 491.189 667.277 645.442 669.321C661.61 653.153 674.991 515.069 675.363 361.002C521.111 358.958 382.841 370.295 366.672 386.463Z" stroke="#F8F7F7" stroke-width="0.25" stroke-miterlimit="10"/>
<path d="M404.589 527.898C412.767 519.72 419.457 450.028 419.643 372.158" stroke="#F8F7F7" stroke-width="0.25" stroke-miterlimit="10"/>
<path d="M504.569 629.366C518.508 615.428 530.03 496.3 530.402 363.049" stroke="#F8F7F7" stroke-width="0.25" stroke-miterlimit="10"/>
<path d="M366.674 386.465C374.665 511.539 506.058 614.498 660.311 616.357" stroke="#F8F7F7" stroke-width="0.25" stroke-miterlimit="10"/>
<path d="M366.671 386.465C380.61 450.396 516.835 503.734 671.088 505.778" stroke="#F8F7F7" stroke-width="0.25" stroke-miterlimit="10"/>
<path d="M366.67 386.467C382.839 370.299 521.108 358.962 675.175 360.821C675.547 206.568 662.538 94.6887 646.369 110.671C492.302 108.813 367.042 232.215 366.67 386.467Z" stroke="#F8F7F7" stroke-width="0.25" stroke-miterlimit="10"/>
<path d="M419.637 372.157C419.823 294.288 413.318 237.791 405.141 245.968" stroke="#F8F7F7" stroke-width="0.25" stroke-miterlimit="10"/>
<path d="M530.4 363.054C530.585 229.802 519.435 133.162 505.496 147.101" stroke="#F8F7F7" stroke-width="0.25" stroke-miterlimit="10"/>
<path d="M366.673 386.469C380.797 294.661 517.208 221.995 671.46 223.854" stroke="#F8F7F7" stroke-width="0.25" stroke-miterlimit="10"/>
<path d="M366.669 386.468C375.218 245.225 506.983 132.23 661.235 134.274" stroke="#F8F7F7" stroke-width="0.25" stroke-miterlimit="10"/>
<path d="M646.558 110.859C800.625 112.718 925.514 239.465 925.142 393.532C908.973 409.7 770.704 421.037 616.637 419.178C616.823 264.926 630.204 126.842 646.558 110.859Z" stroke="#F8F7F7" stroke-width="0.25" stroke-miterlimit="10"/>
<path d="M787.427 150.817C773.488 164.755 761.966 283.883 761.594 417.134" stroke="#F8F7F7" stroke-width="0.25" stroke-miterlimit="10"/>
<path d="M887.411 252.1C879.234 260.277 872.543 329.97 872.358 407.839" stroke="#F8F7F7" stroke-width="0.25" stroke-miterlimit="10"/>
<path d="M631.5 163.638C785.753 165.682 917.332 268.641 925.137 393.53" stroke="#F8F7F7" stroke-width="0.25" stroke-miterlimit="10"/>
<path d="M620.909 274.219C775.161 276.263 911.387 329.601 925.139 393.532" stroke="#F8F7F7" stroke-width="0.25" stroke-miterlimit="10"/>
<path d="M616.636 419.175C770.889 421.219 908.972 409.696 925.141 393.528C924.769 547.78 799.695 671.182 645.443 669.138C629.274 685.306 616.265 573.427 616.636 419.175Z" stroke="#F8F7F7" stroke-width="0.25" stroke-miterlimit="10"/>
<path d="M761.597 416.945C761.412 550.196 772.562 646.836 786.501 632.898" stroke="#F8F7F7" stroke-width="0.25" stroke-miterlimit="10"/>
<path d="M872.364 407.841C872.178 485.71 878.683 542.208 886.86 534.03" stroke="#F8F7F7" stroke-width="0.25" stroke-miterlimit="10"/>
<path d="M620.353 556.143C774.606 558.188 911.017 485.336 925.141 393.528" stroke="#F8F7F7" stroke-width="0.25" stroke-miterlimit="10"/>
<path d="M630.761 645.907C785.013 647.765 916.778 534.957 925.141 393.528" stroke="#F8F7F7" stroke-width="0.25" stroke-miterlimit="10"/>
<path d="M645.442 669.326C799.694 671.185 924.955 547.783 925.141 393.53C941.309 377.361 829.43 362.68 675.177 360.821C674.992 515.074 661.611 653.157 645.442 669.326Z" stroke="#F8F7F7" stroke-width="0.25" stroke-miterlimit="10"/>
<path d="M786.498 632.898C800.437 618.959 811.959 499.832 812.331 366.58" stroke="#F8F7F7" stroke-width="0.25" stroke-miterlimit="10"/>
<path d="M886.858 534.03C895.036 525.853 901.726 456.161 901.912 378.291" stroke="#F8F7F7" stroke-width="0.25" stroke-miterlimit="10"/>
<path d="M660.311 616.357C814.563 618.402 933.133 518.602 925.142 393.528" stroke="#F8F7F7" stroke-width="0.25" stroke-miterlimit="10"/>
<path d="M671.088 505.779C825.341 507.823 939.079 457.459 925.326 393.528" stroke="#F8F7F7" stroke-width="0.25" stroke-miterlimit="10"/>
<path d="M675.362 360.826C829.614 362.87 941.494 377.552 925.325 393.535C925.511 239.468 800.622 112.721 646.556 110.862C662.724 94.6937 675.548 206.573 675.362 360.826Z" stroke="#F8F7F7" stroke-width="0.25" stroke-miterlimit="10"/>
<path d="M812.147 366.581C812.519 233.515 801.368 136.874 787.43 150.813" stroke="#F8F7F7" stroke-width="0.25" stroke-miterlimit="10"/>
<path d="M901.912 378.478C902.098 300.609 895.593 244.111 887.416 252.288" stroke="#F8F7F7" stroke-width="0.25" stroke-miterlimit="10"/>
<path d="M671.649 223.854C825.716 225.899 939.268 301.91 925.143 393.532" stroke="#F8F7F7" stroke-width="0.25" stroke-miterlimit="10"/>
<path d="M661.241 134.276C815.494 136.134 933.692 252.288 925.143 393.532" stroke="#F8F7F7" stroke-width="0.25" stroke-miterlimit="10"/>
<path d="M448.06 190.974C397.881 240.78 366.845 309.915 366.659 386.484C366.845 309.729 397.881 240.78 448.06 190.974ZM448.06 190.974C465.901 173.318 481.326 162.539 481.512 162.539C492.291 155.291 506.973 146.37 518.309 140.052C524.071 136.892 532.248 133.547 538.381 130.759C538.567 130.759 557.523 122.396 580.568 117.007C587.444 115.334 596.922 113.476 603.985 112.546C610.675 111.431 619.782 110.502 626.472 110.13C649.517 108.644 666.057 110.13 672.748 110.688C697.651 113.104 717.165 118.493 717.351 118.679C723.67 120.538 732.219 122.954 738.537 125.184C744.856 127.414 753.219 130.388 759.166 133.361C765.113 136.335 773.291 139.68 779.052 143.211C784.627 146.556 792.247 150.645 797.636 154.176C803.212 157.707 810.646 162.725 815.849 166.999C825.142 174.433 835.735 182.796 848.744 196.363C853.204 201.009 858.78 207.328 862.868 212.346C867.329 217.921 873.462 225.541 877.364 231.488C880.71 236.692 885.356 243.568 888.515 248.958C892.79 256.763 898.551 267.171 902.082 275.348C906.542 285.383 911.374 299.136 914.905 309.543C914.905 309.543 917.136 316.42 919.366 327.571C924.755 353.403 926.8 380.165 926.614 390.944C926.614 393.546 926.614 400.237 926.056 408.228C925.499 417.706 924.569 424.397 924.384 426.255C922.897 437.034 922.153 440.565 920.853 447.627C919.737 452.831 918.251 459.707 916.764 464.725C915.463 469 913.976 474.761 912.489 479.035C909.702 486.841 905.799 497.248 902.454 504.868C897.436 516.205 889.816 530.887 882.94 541.108C876.064 551.515 866.4 564.896 858.222 574.375C853.762 579.392 847.629 586.083 842.797 590.915C838.151 595.375 831.832 601.136 827 605.411C821.982 609.685 809.345 620.093 791.689 630.686C775.892 640.164 762.883 646.111 752.662 650.386C743.927 654.103 728.502 659.678 710.475 663.953C690.031 668.785 675.35 669.9 665.686 670.643C653.791 671.572 637.809 671.572 625.915 670.643C612.348 669.528 594.507 666.554 581.311 663.767C564.399 660.421 533.177 648.713 518.867 640.908C513.106 637.748 505.486 633.66 499.911 630.314C494.335 626.783 486.902 621.951 481.512 618.048C465.901 606.712 454.564 596.119 448.245 589.8C443.413 584.968 436.909 578.277 432.634 572.888C424.829 563.038 414.793 549.285 407.731 538.878C407.545 538.692 396.209 520.665 387.288 499.293C383.757 490.93 379.854 479.407 377.066 470.672C375.208 464.725 373.164 456.734 372.048 450.787C370.376 442.61 369.075 435.362 367.216 418.821C367.216 418.264 365.544 403.024 365.544 390.201C365.544 383.51 365.916 377.749 365.916 375.519C366.287 368.643 366.845 362.324 367.216 359.165C369.632 337.606 374.093 321.438 375.394 316.234C381.527 293.932 389.704 276.277 389.704 276.277C395.093 265.126 403.085 250.63 409.218 240.037C412.377 234.647 417.395 228.143 420.926 222.939C427.988 211.974 439.511 199.894 448.06 190.974Z" stroke="#F8F7F7" stroke-width="0.25" stroke-miterlimit="10"/>
<path d="M366.675 386.466C367.047 232.214 492.307 108.812 646.559 110.856C630.391 127.025 617.01 265.108 616.638 419.175C462.386 417.131 350.506 402.635 366.675 386.466Z" stroke="#F8F7F7" stroke-width="0.25" stroke-miterlimit="10"/>
<path d="M405.142 245.966C396.965 254.144 390.274 323.836 390.089 401.706" stroke="#F8F7F7" stroke-width="0.25" stroke-miterlimit="10"/>
<path d="M505.499 147.098C491.561 161.036 480.038 280.164 479.667 413.416" stroke="#F8F7F7" stroke-width="0.25" stroke-miterlimit="10"/>
<path d="M366.676 386.463C358.87 261.389 477.44 161.589 631.507 163.634" stroke="#F8F7F7" stroke-width="0.25" stroke-miterlimit="10"/>
<path d="M366.676 386.463C352.738 322.532 466.662 272.354 620.914 274.212" stroke="#F8F7F7" stroke-width="0.25" stroke-miterlimit="10"/>
<path d="M366.673 386.465C350.504 402.634 462.384 417.315 616.636 419.174C616.264 573.426 629.274 685.306 645.442 669.323C491.19 667.279 366.487 540.717 366.673 386.465Z" stroke="#F8F7F7" stroke-width="0.25" stroke-miterlimit="10"/>
<path d="M390.089 401.708C389.903 479.577 396.408 536.075 404.585 527.897" stroke="#F8F7F7" stroke-width="0.25" stroke-miterlimit="10"/>
<path d="M479.668 413.413C479.482 546.665 490.633 643.305 504.571 629.366" stroke="#F8F7F7" stroke-width="0.25" stroke-miterlimit="10"/>
<path d="M366.677 386.465C352.553 478.273 466.105 554.098 620.357 556.143" stroke="#F8F7F7" stroke-width="0.25" stroke-miterlimit="10"/>
<path d="M366.674 386.465C358.311 527.708 476.509 643.862 630.575 645.906" stroke="#F8F7F7" stroke-width="0.25" stroke-miterlimit="10"/>
<path d="M366.672 386.463C366.301 540.716 491.189 667.277 645.442 669.321C661.61 653.153 674.991 515.069 675.363 361.002C521.111 358.958 382.841 370.295 366.672 386.463Z" stroke="#F8F7F7" stroke-width="0.25" stroke-miterlimit="10"/>
<path d="M404.589 527.898C412.767 519.72 419.457 450.028 419.643 372.158" stroke="#F8F7F7" stroke-width="0.25" stroke-miterlimit="10"/>
<path d="M504.569 629.366C518.508 615.428 530.03 496.3 530.402 363.049" stroke="#F8F7F7" stroke-width="0.25" stroke-miterlimit="10"/>
<path d="M366.674 386.465C374.665 511.539 506.058 614.498 660.311 616.357" stroke="#F8F7F7" stroke-width="0.25" stroke-miterlimit="10"/>
<path d="M366.671 386.465C380.61 450.396 516.835 503.734 671.088 505.778" stroke="#F8F7F7" stroke-width="0.25" stroke-miterlimit="10"/>
<path d="M366.67 386.467C382.839 370.299 521.108 358.962 675.175 360.821C675.547 206.568 662.538 94.6887 646.369 110.671C492.302 108.813 367.042 232.215 366.67 386.467Z" stroke="#F8F7F7" stroke-width="0.25" stroke-miterlimit="10"/>
<path d="M419.637 372.157C419.823 294.288 413.318 237.791 405.141 245.968" stroke="#F8F7F7" stroke-width="0.25" stroke-miterlimit="10"/>
<path d="M530.4 363.054C530.585 229.802 519.435 133.162 505.496 147.101" stroke="#F8F7F7" stroke-width="0.25" stroke-miterlimit="10"/>
<path d="M366.673 386.469C380.797 294.661 517.208 221.995 671.46 223.854" stroke="#F8F7F7" stroke-width="0.25" stroke-miterlimit="10"/>
<path d="M366.669 386.468C375.218 245.225 506.983 132.23 661.235 134.274" stroke="#F8F7F7" stroke-width="0.25" stroke-miterlimit="10"/>
<path d="M646.558 110.859C800.625 112.718 925.514 239.465 925.142 393.532C908.973 409.7 770.704 421.037 616.637 419.178C616.823 264.926 630.204 126.842 646.558 110.859Z" stroke="#F8F7F7" stroke-width="0.25" stroke-miterlimit="10"/>
<path d="M787.427 150.817C773.488 164.755 761.966 283.883 761.594 417.134" stroke="#F8F7F7" stroke-width="0.25" stroke-miterlimit="10"/>
<path d="M887.411 252.1C879.234 260.277 872.543 329.97 872.358 407.839" stroke="#F8F7F7" stroke-width="0.25" stroke-miterlimit="10"/>
<path d="M631.5 163.638C785.753 165.682 917.332 268.641 925.137 393.53" stroke="#F8F7F7" stroke-width="0.25" stroke-miterlimit="10"/>
<path d="M620.909 274.219C775.161 276.263 911.387 329.601 925.139 393.532" stroke="#F8F7F7" stroke-width="0.25" stroke-miterlimit="10"/>
<path d="M616.636 419.175C770.889 421.219 908.972 409.696 925.141 393.528C924.769 547.78 799.695 671.182 645.443 669.138C629.274 685.306 616.265 573.427 616.636 419.175Z" stroke="#F8F7F7" stroke-width="0.25" stroke-miterlimit="10"/>
<path d="M761.597 416.945C761.412 550.196 772.562 646.836 786.501 632.898" stroke="#F8F7F7" stroke-width="0.25" stroke-miterlimit="10"/>
<path d="M872.364 407.841C872.178 485.71 878.683 542.208 886.86 534.03" stroke="#F8F7F7" stroke-width="0.25" stroke-miterlimit="10"/>
<path d="M620.353 556.143C774.606 558.188 911.017 485.336 925.141 393.528" stroke="#F8F7F7" stroke-width="0.25" stroke-miterlimit="10"/>
<path d="M630.761 645.907C785.013 647.765 916.778 534.957 925.141 393.528" stroke="#F8F7F7" stroke-width="0.25" stroke-miterlimit="10"/>
<path d="M645.442 669.326C799.694 671.185 924.955 547.783 925.141 393.53C941.309 377.361 829.43 362.68 675.177 360.821C674.992 515.074 661.611 653.157 645.442 669.326Z" stroke="#F8F7F7" stroke-width="0.25" stroke-miterlimit="10"/>
<path d="M786.498 632.898C800.437 618.959 811.959 499.832 812.331 366.58" stroke="#F8F7F7" stroke-width="0.25" stroke-miterlimit="10"/>
<path d="M886.858 534.03C895.036 525.853 901.726 456.161 901.912 378.291" stroke="#F8F7F7" stroke-width="0.25" stroke-miterlimit="10"/>
<path d="M660.311 616.357C814.563 618.402 933.133 518.602 925.142 393.528" stroke="#F8F7F7" stroke-width="0.25" stroke-miterlimit="10"/>
<path d="M671.088 505.779C825.341 507.823 939.079 457.459 925.326 393.528" stroke="#F8F7F7" stroke-width="0.25" stroke-miterlimit="10"/>
<path d="M675.362 360.826C829.614 362.87 941.494 377.552 925.325 393.535C925.511 239.468 800.622 112.721 646.556 110.862C662.724 94.6937 675.548 206.573 675.362 360.826Z" stroke="#F8F7F7" stroke-width="0.25" stroke-miterlimit="10"/>
<path d="M812.147 366.581C812.519 233.515 801.368 136.874 787.43 150.813" stroke="#F8F7F7" stroke-width="0.25" stroke-miterlimit="10"/>
<path d="M901.912 378.478C902.098 300.609 895.593 244.111 887.416 252.288" stroke="#F8F7F7" stroke-width="0.25" stroke-miterlimit="10"/>
<path d="M671.649 223.854C825.716 225.899 939.268 301.91 925.143 393.532" stroke="#F8F7F7" stroke-width="0.25" stroke-miterlimit="10"/>
<path d="M661.241 134.276C815.494 136.134 933.692 252.288 925.143 393.532" stroke="#F8F7F7" stroke-width="0.25" stroke-miterlimit="10"/>
<path d="M365.173 389.631C365.173 379.595 365.916 369.188 366.474 362.869C366.66 360.267 367.217 354.878 368.146 348.745C368.89 343.355 368.89 343.355 370.748 334.063C372.792 323.656 376.695 310.275 376.881 309.717C378.925 302.841 381.899 293.92 384.687 287.23C393.05 266.973 398.439 255.636 413.493 232.591C416.838 227.387 421.856 220.697 425.759 215.865C432.263 208.059 441.184 198.024 448.06 190.776C498.796 140.411 568.86 109.747 646.544 110.862C800.611 112.72 925.499 239.467 925.128 393.534C925.499 239.467 800.611 112.72 646.544 110.862C569.046 109.932 498.796 140.597 448.06 190.961C452.706 186.687 458.839 180.554 463.857 176.465C468.875 172.191 475.937 166.616 481.327 162.713C496.194 151.934 509.761 144.314 518.496 139.854C523.514 137.252 538.753 129.632 559.196 122.942C571.834 118.853 589.303 114.95 602.498 112.534C621.455 109.003 655.465 108.074 672.748 110.49C679.439 111.419 688.545 112.348 695.236 113.463C701.926 114.579 710.847 116.623 717.351 118.295C731.476 122.012 745.972 127.03 759.167 132.791C785.557 144.686 809.531 159.925 832.205 179.811C848.187 193.935 859.152 207.316 862.312 210.847C866.4 215.679 871.604 222.555 875.321 227.759C879.038 233.148 883.87 240.582 887.215 246.158C895.95 260.282 902.64 276.079 905.986 283.513C908.216 288.531 910.632 295.407 912.304 300.611C913.791 304.885 915.464 310.646 916.579 314.921C917.88 319.753 919.366 325.886 920.667 333.691C923.083 347.444 924.198 355.807 924.384 358.595C925.128 365.657 926.057 373.648 926.429 383.684C926.8 390.189 926.429 397.437 926.243 402.269C925.314 423.269 922.154 439.066 920.853 445.757C920.296 448.73 919.366 452.819 918.623 455.792C917.508 460.067 916.021 465.828 914.72 469.917C913.605 474.191 911.561 479.952 910.074 484.227C906.915 492.404 902.454 503.369 898.738 511.36C896.136 516.936 892.047 524.184 889.074 529.573C883.126 540.352 873.462 553.919 865.843 563.769C859.71 571.76 850.789 581.796 843.541 588.858C838.895 593.319 832.762 599.266 827.744 603.354C822.355 607.815 815.107 613.762 809.345 617.664C799.867 624.169 789.274 631.603 771.99 640.338C760.282 646.285 743.928 652.603 731.476 656.878C713.263 663.197 682.227 668.958 665.129 669.701C642.27 670.631 638.553 670.816 618.853 669.144C607.145 668.215 591.719 665.984 580.383 662.825C567.559 659.294 550.647 654.276 538.382 649.258C518.682 641.081 504.186 632.346 499.354 629.373C490.991 624.355 478.167 615.806 464.229 603.912C449.919 591.832 441.556 582.54 433.564 573.619C429.104 568.787 423.714 561.725 419.812 556.521C415.723 551.131 410.519 543.698 406.988 537.751C400.855 527.343 393.421 512.847 388.218 502.068C385.616 496.493 382.828 488.873 380.784 483.112C377.624 474.749 374.651 463.04 372.235 454.306C371.863 452.819 370.748 448.544 369.076 438.509C367.403 426.057 365.173 405.056 365.173 389.631Z" stroke="#F8F7F7" stroke-width="0.25" stroke-miterlimit="10"/>
</g>
<g clip-path="url(#clip1_7_1438)">
<path d="M649.533 110.674C803.786 111.046 927.188 236.306 925.143 390.559C908.975 374.39 770.891 361.009 616.824 360.638C618.869 206.385 633.365 94.5057 649.533 110.674Z" stroke="#F8F7F7" stroke-width="0.25" stroke-miterlimit="10"/>
<path d="M790.034 149.138C781.857 140.961 712.165 134.27 634.295 134.084" stroke="#F8F7F7" stroke-width="0.25" stroke-miterlimit="10"/>
<path d="M888.904 249.499C874.965 235.56 755.838 224.038 622.586 223.666" stroke="#F8F7F7" stroke-width="0.25" stroke-miterlimit="10"/>
<path d="M649.535 110.672C774.609 102.867 874.409 221.437 872.364 375.503" stroke="#F8F7F7" stroke-width="0.25" stroke-miterlimit="10"/>
<path d="M649.533 110.671C713.464 96.7322 763.643 210.656 761.784 364.909" stroke="#F8F7F7" stroke-width="0.25" stroke-miterlimit="10"/>
<path d="M649.535 110.672C633.366 94.5039 618.684 206.383 616.826 360.636C462.573 360.264 350.694 373.273 366.676 389.442C368.721 235.189 495.282 110.487 649.535 110.672Z" stroke="#F8F7F7" stroke-width="0.25" stroke-miterlimit="10"/>
<path d="M634.297 134.087C556.427 133.901 499.93 140.405 508.107 148.583" stroke="#F8F7F7" stroke-width="0.25" stroke-miterlimit="10"/>
<path d="M622.587 223.672C489.335 223.487 392.695 234.637 406.633 248.576" stroke="#F8F7F7" stroke-width="0.25" stroke-miterlimit="10"/>
<path d="M649.535 110.674C557.727 96.5492 481.901 210.101 479.857 364.354" stroke="#F8F7F7" stroke-width="0.25" stroke-miterlimit="10"/>
<path d="M649.535 110.672C508.291 102.308 392.137 220.507 390.093 374.573" stroke="#F8F7F7" stroke-width="0.25" stroke-miterlimit="10"/>
<path d="M649.534 110.675C495.282 110.304 368.721 235.192 366.677 389.445C382.845 405.613 520.929 418.994 674.995 419.366C677.04 265.114 665.703 126.844 649.534 110.675Z" stroke="#F8F7F7" stroke-width="0.25" stroke-miterlimit="10"/>
<path d="M508.105 148.592C516.282 156.769 585.975 163.46 663.844 163.646" stroke="#F8F7F7" stroke-width="0.25" stroke-miterlimit="10"/>
<path d="M406.635 248.574C420.573 262.513 539.701 274.035 672.953 274.407" stroke="#F8F7F7" stroke-width="0.25" stroke-miterlimit="10"/>
<path d="M649.534 110.673C524.46 118.665 421.501 250.058 419.643 404.311" stroke="#F8F7F7" stroke-width="0.25" stroke-miterlimit="10"/>
<path d="M649.534 110.676C585.603 124.614 532.266 260.84 530.221 415.092" stroke="#F8F7F7" stroke-width="0.25" stroke-miterlimit="10"/>
<path d="M649.534 110.666C665.702 126.835 677.039 265.105 675.181 419.171C829.433 419.543 941.312 406.534 925.33 390.365C927.188 236.298 803.786 111.038 649.534 110.666Z" stroke="#F8F7F7" stroke-width="0.25" stroke-miterlimit="10"/>
<path d="M663.843 163.635C741.713 163.821 798.21 157.316 790.033 149.139" stroke="#F8F7F7" stroke-width="0.25" stroke-miterlimit="10"/>
<path d="M672.95 274.397C806.202 274.583 902.842 263.432 888.903 249.494" stroke="#F8F7F7" stroke-width="0.25" stroke-miterlimit="10"/>
<path d="M649.536 110.665C741.344 124.789 814.01 261.201 812.151 415.453" stroke="#F8F7F7" stroke-width="0.25" stroke-miterlimit="10"/>
<path d="M649.535 110.667C790.778 119.216 903.773 250.981 901.728 405.233" stroke="#F8F7F7" stroke-width="0.25" stroke-miterlimit="10"/>
<path d="M925.143 390.557C923.285 544.623 796.537 669.512 642.471 669.14C626.302 652.971 614.966 514.702 616.824 360.635C771.076 360.821 909.16 374.202 925.143 390.557Z" stroke="#F8F7F7" stroke-width="0.25" stroke-miterlimit="10"/>
<path d="M885.188 531.425C871.25 517.486 752.122 505.964 618.87 505.592" stroke="#F8F7F7" stroke-width="0.25" stroke-miterlimit="10"/>
<path d="M783.899 631.411C775.722 623.234 706.03 616.543 628.16 616.358" stroke="#F8F7F7" stroke-width="0.25" stroke-miterlimit="10"/>
<path d="M872.364 375.497C870.32 529.749 767.361 661.328 642.472 669.134" stroke="#F8F7F7" stroke-width="0.25" stroke-miterlimit="10"/>
<path d="M761.784 364.904C759.739 519.156 706.401 655.381 642.47 669.134" stroke="#F8F7F7" stroke-width="0.25" stroke-miterlimit="10"/>
<path d="M616.827 360.635C614.782 514.888 626.305 652.972 642.473 669.14C488.221 668.768 364.819 543.694 366.863 389.442C350.695 373.273 462.574 360.264 616.827 360.635Z" stroke="#F8F7F7" stroke-width="0.25" stroke-miterlimit="10"/>
<path d="M619.055 505.598C485.803 505.413 389.163 516.563 403.102 530.502" stroke="#F8F7F7" stroke-width="0.25" stroke-miterlimit="10"/>
<path d="M628.162 616.359C550.292 616.174 493.795 622.678 501.972 630.855" stroke="#F8F7F7" stroke-width="0.25" stroke-miterlimit="10"/>
<path d="M479.858 364.352C477.814 518.605 550.665 655.016 642.473 669.14" stroke="#F8F7F7" stroke-width="0.25" stroke-miterlimit="10"/>
<path d="M390.094 374.76C388.236 529.012 501.044 660.777 642.473 669.14" stroke="#F8F7F7" stroke-width="0.25" stroke-miterlimit="10"/>
<path d="M366.675 389.445C364.816 543.697 488.218 668.958 642.471 669.144C658.639 685.312 673.321 573.433 675.18 419.18C520.927 418.994 382.843 405.614 366.675 389.445Z" stroke="#F8F7F7" stroke-width="0.25" stroke-miterlimit="10"/>
<path d="M403.102 530.5C417.04 544.438 536.168 555.961 669.419 556.333" stroke="#F8F7F7" stroke-width="0.25" stroke-miterlimit="10"/>
<path d="M501.97 630.858C510.147 639.035 579.84 645.726 657.709 645.912" stroke="#F8F7F7" stroke-width="0.25" stroke-miterlimit="10"/>
<path d="M419.64 404.31C417.596 558.563 517.395 677.133 642.47 669.141" stroke="#F8F7F7" stroke-width="0.25" stroke-miterlimit="10"/>
<path d="M530.219 415.088C528.174 569.34 578.539 683.078 642.47 669.326" stroke="#F8F7F7" stroke-width="0.25" stroke-miterlimit="10"/>
<path d="M675.177 419.361C673.133 573.614 658.451 685.493 642.468 669.324C796.535 669.51 923.282 544.622 925.14 390.555C941.309 406.724 829.429 419.547 675.177 419.361Z" stroke="#F8F7F7" stroke-width="0.25" stroke-miterlimit="10"/>
<path d="M669.422 556.15C802.488 556.522 899.128 545.371 885.19 531.433" stroke="#F8F7F7" stroke-width="0.25" stroke-miterlimit="10"/>
<path d="M657.528 645.908C735.398 646.094 791.895 639.589 783.718 631.412" stroke="#F8F7F7" stroke-width="0.25" stroke-miterlimit="10"/>
<path d="M812.15 415.648C810.106 569.715 734.094 683.267 642.472 669.143" stroke="#F8F7F7" stroke-width="0.25" stroke-miterlimit="10"/>
<path d="M901.728 405.242C899.87 559.495 783.716 677.693 642.473 669.144" stroke="#F8F7F7" stroke-width="0.25" stroke-miterlimit="10"/>
<path d="M845.026 192.061C795.219 141.882 726.084 110.846 649.515 110.66C726.27 110.846 795.219 141.882 845.026 192.061ZM845.026 192.061C862.681 209.902 873.46 225.327 873.46 225.513C880.708 236.292 889.629 250.974 895.948 262.311C899.107 268.072 902.452 276.249 905.24 282.382C905.24 282.568 913.603 301.524 918.993 324.569C920.665 331.446 922.524 340.924 923.453 347.986C924.568 354.676 925.497 363.783 925.869 370.473C927.356 393.518 925.869 410.059 925.311 416.749C922.895 441.653 917.506 461.166 917.32 461.352C915.461 467.671 913.045 476.22 910.815 482.539C908.585 488.858 905.612 497.221 902.638 503.168C899.665 509.115 896.319 517.292 892.788 523.053C889.443 528.629 885.354 536.248 881.823 541.638C878.292 547.213 873.274 554.647 869 559.851C861.566 569.143 853.203 579.736 839.636 592.746C834.99 597.206 828.671 602.781 823.653 606.87C818.078 611.33 810.458 617.463 804.511 621.366C799.308 624.711 792.431 629.357 787.042 632.517C779.236 636.791 768.829 642.552 760.652 646.083C750.616 650.544 736.863 655.376 726.456 658.907C726.456 658.907 719.58 661.137 708.429 663.367C682.596 668.757 655.834 670.801 645.055 670.615C642.453 670.615 635.763 670.615 627.771 670.058C618.293 669.5 611.603 668.571 609.744 668.385C598.965 666.898 595.434 666.155 588.372 664.854C583.168 663.739 576.292 662.252 571.274 660.765C567 659.464 561.238 657.978 556.964 656.491C549.158 653.703 538.751 649.8 531.131 646.455C519.795 641.437 505.113 633.818 494.891 626.941C484.484 620.065 471.103 610.401 461.625 602.224C456.607 597.763 449.917 591.631 445.085 586.799C440.624 582.152 434.863 575.834 430.589 571.002C426.314 565.984 415.907 553.346 405.313 535.691C395.835 519.894 389.888 506.885 385.614 496.663C381.897 487.928 376.321 472.503 372.047 454.476C367.215 434.033 366.1 419.351 365.356 409.687C364.427 397.793 364.427 381.81 365.356 369.916C366.472 356.349 369.445 338.508 372.233 325.313C375.578 308.401 387.286 277.179 395.092 262.868C398.251 257.107 402.34 249.488 405.685 243.912C409.216 238.337 414.048 230.903 417.951 225.513C429.288 209.902 439.881 198.566 446.2 192.247C451.032 187.415 457.722 180.91 463.112 176.636C472.961 168.83 486.714 158.795 497.121 151.732C497.307 151.547 515.334 140.21 536.707 131.289C545.07 127.758 556.592 123.855 565.327 121.068C571.274 119.209 579.266 117.165 585.213 116.05C593.39 114.377 600.638 113.076 617.178 111.218C617.736 111.218 632.975 109.545 645.798 109.545C652.489 109.545 658.25 109.917 660.48 109.917C667.357 110.289 673.675 110.846 676.835 111.218C698.393 113.634 714.562 118.094 719.765 119.395C742.067 125.528 759.722 133.705 759.722 133.705C770.873 139.095 785.369 147.086 795.962 153.219C801.352 156.379 807.856 161.396 813.06 164.927C824.025 171.99 836.105 183.512 845.026 192.061Z" stroke="#F8F7F7" stroke-width="0.25" stroke-miterlimit="10"/>
<path d="M649.533 110.674C803.786 111.046 927.188 236.306 925.143 390.559C908.975 374.39 770.891 361.009 616.824 360.638C618.869 206.385 633.365 94.5057 649.533 110.674Z" stroke="#F8F7F7" stroke-width="0.25" stroke-miterlimit="10"/>
<path d="M790.034 149.138C781.857 140.961 712.165 134.27 634.295 134.084" stroke="#F8F7F7" stroke-width="0.25" stroke-miterlimit="10"/>
<path d="M888.904 249.499C874.965 235.56 755.838 224.038 622.586 223.666" stroke="#F8F7F7" stroke-width="0.25" stroke-miterlimit="10"/>
<path d="M649.535 110.672C774.609 102.867 874.409 221.437 872.364 375.503" stroke="#F8F7F7" stroke-width="0.25" stroke-miterlimit="10"/>
<path d="M649.533 110.671C713.464 96.7322 763.643 210.656 761.784 364.909" stroke="#F8F7F7" stroke-width="0.25" stroke-miterlimit="10"/>
<path d="M649.535 110.672C633.366 94.5039 618.684 206.383 616.826 360.636C462.573 360.264 350.694 373.273 366.676 389.442C368.721 235.189 495.282 110.487 649.535 110.672Z" stroke="#F8F7F7" stroke-width="0.25" stroke-miterlimit="10"/>
<path d="M634.297 134.087C556.427 133.901 499.93 140.405 508.107 148.583" stroke="#F8F7F7" stroke-width="0.25" stroke-miterlimit="10"/>
<path d="M622.587 223.672C489.335 223.487 392.695 234.637 406.633 248.576" stroke="#F8F7F7" stroke-width="0.25" stroke-miterlimit="10"/>
<path d="M649.535 110.674C557.727 96.5492 481.901 210.101 479.857 364.354" stroke="#F8F7F7" stroke-width="0.25" stroke-miterlimit="10"/>
<path d="M649.535 110.672C508.291 102.308 392.137 220.507 390.093 374.573" stroke="#F8F7F7" stroke-width="0.25" stroke-miterlimit="10"/>
<path d="M649.534 110.675C495.282 110.304 368.721 235.192 366.677 389.445C382.845 405.613 520.929 418.994 674.995 419.366C677.04 265.114 665.703 126.844 649.534 110.675Z" stroke="#F8F7F7" stroke-width="0.25" stroke-miterlimit="10"/>
<path d="M508.105 148.592C516.282 156.769 585.975 163.46 663.844 163.646" stroke="#F8F7F7" stroke-width="0.25" stroke-miterlimit="10"/>
<path d="M406.635 248.574C420.573 262.513 539.701 274.035 672.953 274.407" stroke="#F8F7F7" stroke-width="0.25" stroke-miterlimit="10"/>
<path d="M649.534 110.673C524.46 118.665 421.501 250.058 419.643 404.311" stroke="#F8F7F7" stroke-width="0.25" stroke-miterlimit="10"/>
<path d="M649.534 110.676C585.603 124.614 532.266 260.84 530.221 415.092" stroke="#F8F7F7" stroke-width="0.25" stroke-miterlimit="10"/>
<path d="M649.534 110.666C665.702 126.835 677.039 265.105 675.181 419.171C829.433 419.543 941.312 406.534 925.33 390.365C927.188 236.298 803.786 111.038 649.534 110.666Z" stroke="#F8F7F7" stroke-width="0.25" stroke-miterlimit="10"/>
<path d="M663.843 163.635C741.713 163.821 798.21 157.316 790.033 149.139" stroke="#F8F7F7" stroke-width="0.25" stroke-miterlimit="10"/>
<path d="M672.95 274.397C806.202 274.583 902.842 263.432 888.903 249.494" stroke="#F8F7F7" stroke-width="0.25" stroke-miterlimit="10"/>
<path d="M649.536 110.665C741.344 124.789 814.01 261.201 812.151 415.453" stroke="#F8F7F7" stroke-width="0.25" stroke-miterlimit="10"/>
<path d="M649.535 110.667C790.778 119.216 903.773 250.981 901.728 405.233" stroke="#F8F7F7" stroke-width="0.25" stroke-miterlimit="10"/>
<path d="M925.143 390.557C923.285 544.623 796.537 669.512 642.471 669.14C626.302 652.971 614.966 514.702 616.824 360.635C771.076 360.821 909.16 374.202 925.143 390.557Z" stroke="#F8F7F7" stroke-width="0.25" stroke-miterlimit="10"/>
<path d="M885.188 531.425C871.25 517.486 752.122 505.964 618.87 505.592" stroke="#F8F7F7" stroke-width="0.25" stroke-miterlimit="10"/>
<path d="M783.899 631.411C775.722 623.234 706.03 616.543 628.16 616.358" stroke="#F8F7F7" stroke-width="0.25" stroke-miterlimit="10"/>
<path d="M872.364 375.497C870.32 529.749 767.361 661.328 642.472 669.134" stroke="#F8F7F7" stroke-width="0.25" stroke-miterlimit="10"/>
<path d="M761.784 364.904C759.739 519.156 706.401 655.381 642.47 669.134" stroke="#F8F7F7" stroke-width="0.25" stroke-miterlimit="10"/>
<path d="M616.827 360.635C614.782 514.888 626.305 652.972 642.473 669.14C488.221 668.768 364.819 543.694 366.863 389.442C350.695 373.273 462.574 360.264 616.827 360.635Z" stroke="#F8F7F7" stroke-width="0.25" stroke-miterlimit="10"/>
<path d="M619.055 505.598C485.803 505.413 389.163 516.563 403.102 530.502" stroke="#F8F7F7" stroke-width="0.25" stroke-miterlimit="10"/>
<path d="M628.162 616.359C550.292 616.174 493.795 622.678 501.972 630.855" stroke="#F8F7F7" stroke-width="0.25" stroke-miterlimit="10"/>
<path d="M479.858 364.352C477.814 518.605 550.665 655.016 642.473 669.14" stroke="#F8F7F7" stroke-width="0.25" stroke-miterlimit="10"/>
<path d="M390.094 374.76C388.236 529.012 501.044 660.777 642.473 669.14" stroke="#F8F7F7" stroke-width="0.25" stroke-miterlimit="10"/>
<path d="M366.675 389.445C364.816 543.697 488.218 668.958 642.471 669.144C658.639 685.312 673.321 573.433 675.18 419.18C520.927 418.994 382.843 405.614 366.675 389.445Z" stroke="#F8F7F7" stroke-width="0.25" stroke-miterlimit="10"/>
<path d="M403.102 530.5C417.04 544.438 536.168 555.961 669.419 556.333" stroke="#F8F7F7" stroke-width="0.25" stroke-miterlimit="10"/>
<path d="M501.97 630.858C510.147 639.035 579.84 645.726 657.709 645.912" stroke="#F8F7F7" stroke-width="0.25" stroke-miterlimit="10"/>
<path d="M419.64 404.31C417.596 558.563 517.395 677.133 642.47 669.141" stroke="#F8F7F7" stroke-width="0.25" stroke-miterlimit="10"/>
<path d="M530.219 415.088C528.174 569.34 578.539 683.078 642.47 669.326" stroke="#F8F7F7" stroke-width="0.25" stroke-miterlimit="10"/>
<path d="M675.177 419.361C673.133 573.614 658.451 685.493 642.468 669.324C796.535 669.51 923.282 544.622 925.14 390.555C941.309 406.724 829.429 419.547 675.177 419.361Z" stroke="#F8F7F7" stroke-width="0.25" stroke-miterlimit="10"/>
<path d="M669.422 556.15C802.488 556.522 899.128 545.371 885.19 531.433" stroke="#F8F7F7" stroke-width="0.25" stroke-miterlimit="10"/>
<path d="M657.528 645.908C735.398 646.094 791.895 639.589 783.718 631.412" stroke="#F8F7F7" stroke-width="0.25" stroke-miterlimit="10"/>
<path d="M812.15 415.648C810.106 569.715 734.094 683.267 642.472 669.143" stroke="#F8F7F7" stroke-width="0.25" stroke-miterlimit="10"/>
<path d="M901.728 405.242C899.87 559.495 783.716 677.693 642.473 669.144" stroke="#F8F7F7" stroke-width="0.25" stroke-miterlimit="10"/>
<path d="M646.367 109.169C656.403 109.169 666.81 109.912 673.129 110.47C675.731 110.655 681.12 111.213 687.253 112.142C692.643 112.886 692.643 112.886 701.935 114.744C712.342 116.788 725.723 120.691 726.281 120.877C733.157 122.921 742.078 125.895 748.768 128.683C769.025 137.046 780.362 142.435 803.407 157.489C808.611 160.834 815.301 165.852 820.133 169.754C827.939 176.259 837.974 185.18 845.222 192.056C895.587 242.792 926.251 312.856 925.136 390.54C923.278 544.607 796.531 669.495 642.464 669.124C796.531 669.495 923.278 544.607 925.136 390.54C926.066 313.042 895.401 242.792 845.037 192.056C849.311 196.702 855.444 202.835 859.533 207.853C863.807 212.871 869.382 219.933 873.285 225.323C884.064 240.19 891.684 253.757 896.144 262.492C898.746 267.51 906.366 282.749 913.056 303.192C917.145 315.83 921.048 333.299 923.464 346.494C926.995 365.451 927.924 399.461 925.508 416.744C924.579 423.435 923.65 432.541 922.534 439.232C921.419 445.922 919.375 454.843 917.702 461.347C913.986 475.472 908.968 489.968 903.206 503.163C891.312 529.553 876.073 553.527 856.187 576.2C842.063 592.183 828.682 603.148 825.151 606.307C820.319 610.396 813.443 615.6 808.239 619.317C802.849 623.034 795.416 627.866 789.84 631.211C775.716 639.946 759.919 646.636 752.485 649.981C747.467 652.212 740.591 654.628 735.387 656.3C731.113 657.787 725.352 659.46 721.077 660.575C716.245 661.876 710.112 663.362 702.307 664.663C688.554 667.079 680.191 668.194 677.403 668.38C670.341 669.124 662.35 670.053 652.314 670.424C645.809 670.796 638.561 670.424 633.729 670.239C612.729 669.309 596.932 666.15 590.241 664.849C587.268 664.292 583.179 663.362 580.206 662.619C575.931 661.504 570.17 660.017 566.081 658.716C561.807 657.601 556.046 655.557 551.771 654.07C543.594 650.911 532.629 646.45 524.638 642.733C519.062 640.132 511.814 636.043 506.425 633.069C495.646 627.122 482.079 617.458 472.229 609.839C464.238 603.706 454.202 594.785 447.14 587.537C442.679 582.891 436.732 576.758 432.644 571.74C428.183 566.351 422.236 559.103 418.334 553.341C411.829 543.863 404.395 533.27 395.66 515.986C389.713 504.278 383.394 487.923 379.12 475.472C372.801 457.259 367.04 426.222 366.297 409.125C365.367 386.266 365.182 382.549 366.854 362.849C367.783 351.141 370.013 335.715 373.173 324.379C376.704 311.555 381.722 294.643 386.74 282.377C394.917 262.678 403.652 248.182 406.625 243.35C411.643 234.987 420.192 222.163 432.086 208.225C444.166 193.915 453.458 185.551 462.379 177.56C467.211 173.1 474.273 167.71 479.477 163.807C484.866 159.719 492.3 154.515 498.247 150.984C508.655 144.851 523.151 137.417 533.93 132.214C539.505 129.612 547.125 126.824 552.886 124.78C561.249 121.62 572.958 118.647 581.692 116.231C583.179 115.859 587.454 114.744 597.489 113.071C609.941 111.399 630.942 109.169 646.367 109.169Z" stroke="#F8F7F7" stroke-width="0.25" stroke-miterlimit="10"/>
</g>
<path d="M1205.06 630.896C1195.65 653.651 1171.1 668.996 1134.55 677.158C1098.01 685.317 1049.59 686.269 992.653 680.344C878.783 668.493 730.945 629.149 576.138 565.107C421.332 501.066 288.905 424.467 199.942 352.408C155.459 316.376 121.865 281.498 101.77 249.91C81.6656 218.309 75.1348 190.108 84.5482 167.353C93.9617 144.599 118.507 129.254 155.061 121.091C191.599 112.933 240.015 111.98 296.953 117.906C410.824 129.756 558.662 169.101 713.468 233.142C868.275 297.184 1000.7 373.782 1089.66 445.841C1134.15 481.873 1167.74 516.752 1187.84 548.339C1207.94 579.941 1214.47 608.141 1205.06 630.896Z" stroke="white"/>
<path d="M1216.26 318.83C1223.06 342.496 1213.42 369.788 1189.9 398.939C1166.39 428.077 1129.11 458.975 1080.87 489.799C984.396 551.443 844.224 612.731 683.22 659.034C522.216 705.338 370.902 727.881 256.421 726.905C199.177 726.417 151.172 720.05 115.777 707.851C80.3671 695.646 57.6947 677.65 50.8885 653.984C44.0823 630.318 53.7299 603.026 77.2466 573.875C100.753 544.736 138.04 513.839 186.279 483.015C282.751 421.37 422.923 360.083 583.927 313.779C744.931 267.476 896.245 244.933 1010.73 245.908C1067.97 246.396 1115.98 252.764 1151.37 264.963C1186.78 277.167 1209.45 295.164 1216.26 318.83Z" stroke="white"/>
<defs>
<clipPath id="clip0_7_1438">
<rect width="561.999" height="561.999" fill="white" transform="translate(927 109) rotate(90)"/>
</clipPath>
<clipPath id="clip1_7_1438">
<rect width="561.999" height="561.999" fill="white" transform="translate(927 671) rotate(180)"/>
</clipPath>
</defs>
</svg>
