<svg width="245" height="392" viewBox="0 0 245 392" fill="none" xmlns="http://www.w3.org/2000/svg">
<ellipse cx="35.2216" cy="344.071" rx="29.3289" ry="29.7253" transform="rotate(-93.9278 35.2216 344.071)" fill="white"/>
<ellipse cx="92.768" cy="229.047" rx="19.0613" ry="19.3189" transform="rotate(-63.6777 92.768 229.047)" fill="white"/>
<ellipse cx="81.5429" cy="350.425" rx="38.841" ry="38.6429" transform="rotate(-93.9278 81.5429 350.425)" fill="white"/>
<ellipse cx="116.693" cy="247.78" rx="25.2434" ry="25.1146" transform="rotate(-63.6777 116.693 247.78)" fill="white"/>
<ellipse cx="49.0378" cy="284.922" rx="10.8993" ry="10.7011" transform="rotate(-93.9278 49.0378 284.922)" fill="white"/>
<ellipse cx="119.89" cy="200.363" rx="7.08361" ry="6.95482" transform="rotate(-63.6777 119.89 200.363)" fill="white"/>
<circle cx="84.9601" cy="73.2929" r="38.0484" transform="rotate(-93.9278 84.9601 73.2929)" fill="white"/>
<circle cx="209.348" cy="93.3118" r="24.7282" transform="rotate(-63.6777 209.348 93.3118)" fill="white"/>
<ellipse cx="129.628" cy="90.2878" rx="18.0333" ry="18.4297" transform="rotate(-93.9278 129.628 90.2878)" fill="white"/>
<ellipse cx="228.861" cy="117.478" rx="11.7202" ry="11.9777" transform="rotate(-63.6777 228.861 117.478)" fill="white"/>
<circle cx="41.7487" cy="19.6488" r="18.4297" transform="rotate(-93.9278 41.7487 19.6488)" fill="white"/>
<circle cx="202.651" cy="49.047" r="11.9777" transform="rotate(-63.6777 202.651 49.047)" fill="white"/>
<ellipse cx="41.984" cy="52.0101" rx="9.11575" ry="9.31392" transform="rotate(-93.9278 41.984 52.0101)" fill="white"/>
<ellipse cx="192.188" cy="67.2924" rx="5.92447" ry="6.05327" transform="rotate(-63.6777 192.188 67.2924)" fill="white"/>
<ellipse cx="8.88731" cy="139.894" rx="8.52125" ry="8.32308" transform="rotate(-93.9278 8.88731 139.894)" fill="white"/>
<ellipse cx="144.833" cy="105.796" rx="5.53809" ry="5.4093" transform="rotate(-63.6777 144.833 105.796)" fill="white"/>
</svg>
