<svg width="176" height="280" viewBox="0 0 176 280" fill="none" xmlns="http://www.w3.org/2000/svg">
<ellipse cx="25.9043" cy="245.196" rx="20.8663" ry="21.1483" transform="rotate(-93.9278 25.9043 245.196)" fill="white"/>
<ellipse cx="66.8459" cy="163.362" rx="13.5614" ry="13.7446" transform="rotate(-63.6777 66.8459 163.362)" fill="white"/>
<ellipse cx="58.8595" cy="249.716" rx="27.6338" ry="27.4928" transform="rotate(-93.9278 58.8595 249.716)" fill="white"/>
<ellipse cx="83.8675" cy="176.69" rx="17.9596" ry="17.868" transform="rotate(-63.6777 83.8675 176.69)" fill="white"/>
<ellipse cx="35.7334" cy="203.114" rx="7.75438" ry="7.61339" transform="rotate(-93.9278 35.7334 203.114)" fill="white"/>
<ellipse cx="86.1424" cy="142.954" rx="5.03969" ry="4.94806" transform="rotate(-63.6777 86.1424 142.954)" fill="white"/>
<circle cx="61.2909" cy="52.5488" r="27.0698" transform="rotate(-93.9278 61.2909 52.5488)" fill="white"/>
<circle cx="149.787" cy="66.7915" r="17.5931" transform="rotate(-63.6777 149.787 66.7915)" fill="white"/>
<ellipse cx="93.0705" cy="64.6399" rx="12.83" ry="13.1119" transform="rotate(-93.9278 93.0705 64.6399)" fill="white"/>
<ellipse cx="163.671" cy="83.9848" rx="8.3384" ry="8.52166" transform="rotate(-63.6777 163.671 83.9848)" fill="white"/>
<circle cx="30.5475" cy="14.3833" r="13.1119" transform="rotate(-93.9278 30.5475 14.3833)" fill="white"/>
<circle cx="145.023" cy="35.2987" r="8.52166" transform="rotate(-63.6777 145.023 35.2987)" fill="white"/>
<ellipse cx="30.7153" cy="37.4073" rx="6.48548" ry="6.62647" transform="rotate(-93.9278 30.7153 37.4073)" fill="white"/>
<ellipse cx="137.579" cy="48.2799" rx="4.21501" ry="4.30665" transform="rotate(-63.6777 137.579 48.2799)" fill="white"/>
<ellipse cx="7.16824" cy="99.9329" rx="6.06251" ry="5.92152" transform="rotate(-93.9278 7.16824 99.9329)" fill="white"/>
<ellipse cx="103.888" cy="75.673" rx="3.94012" ry="3.84849" transform="rotate(-63.6777 103.888 75.673)" fill="white"/>
</svg>
