<svg width="957" height="621" viewBox="0 0 957 621" fill="none" xmlns="http://www.w3.org/2000/svg">
<g clip-path="url(#clip0_133_2)">
<path d="M275.505 290.099C275.784 174.41 369.729 81.8584 485.418 83.3916C473.292 95.5181 463.256 199.081 462.977 314.631C347.288 313.098 263.378 302.226 275.505 290.099Z" stroke="#F8F7F7" stroke-width="0.1875" stroke-miterlimit="10"/>
<path d="M304.354 184.725C298.222 190.858 293.204 243.127 293.064 301.53" stroke="#F8F7F7" stroke-width="0.1875" stroke-miterlimit="10"/>
<path d="M379.623 110.573C369.169 121.027 360.527 210.373 360.248 310.312" stroke="#F8F7F7" stroke-width="0.1875" stroke-miterlimit="10"/>
<path d="M275.505 290.097C269.651 196.291 358.578 121.442 474.128 122.975" stroke="#F8F7F7" stroke-width="0.1875" stroke-miterlimit="10"/>
<path d="M275.505 290.097C265.052 242.149 350.495 204.515 466.184 205.909" stroke="#F8F7F7" stroke-width="0.1875" stroke-miterlimit="10"/>
<path d="M275.503 290.099C263.377 302.225 347.286 313.237 462.976 314.63C462.697 430.32 472.454 514.229 484.58 502.242C368.891 500.709 275.364 405.788 275.503 290.099Z" stroke="#F8F7F7" stroke-width="0.1875" stroke-miterlimit="10"/>
<path d="M293.066 301.53C292.927 359.933 297.805 402.305 303.938 396.173" stroke="#F8F7F7" stroke-width="0.1875" stroke-miterlimit="10"/>
<path d="M360.25 310.31C360.111 410.249 368.474 482.729 378.928 472.275" stroke="#F8F7F7" stroke-width="0.1875" stroke-miterlimit="10"/>
<path d="M275.507 290.098C264.914 358.954 350.078 415.823 465.767 417.357" stroke="#F8F7F7" stroke-width="0.1875" stroke-miterlimit="10"/>
<path d="M275.505 290.098C269.232 396.031 357.881 483.146 473.431 484.68" stroke="#F8F7F7" stroke-width="0.1875" stroke-miterlimit="10"/>
<path d="M275.503 290.097C275.224 405.786 368.891 500.707 484.58 502.24C496.707 490.114 506.742 386.551 507.021 271.001C391.332 269.468 287.63 277.97 275.503 290.097Z" stroke="#F8F7F7" stroke-width="0.1875" stroke-miterlimit="10"/>
<path d="M303.94 396.172C310.073 390.04 315.091 337.77 315.23 279.368" stroke="#F8F7F7" stroke-width="0.1875" stroke-miterlimit="10"/>
<path d="M378.925 472.274C389.379 461.82 398.02 372.474 398.299 272.535" stroke="#F8F7F7" stroke-width="0.1875" stroke-miterlimit="10"/>
<path d="M275.503 290.098C281.497 383.904 380.042 461.123 495.731 462.516" stroke="#F8F7F7" stroke-width="0.1875" stroke-miterlimit="10"/>
<path d="M275.502 290.098C285.955 338.046 388.124 378.049 503.814 379.583" stroke="#F8F7F7" stroke-width="0.1875" stroke-miterlimit="10"/>
<path d="M275.501 290.1C287.628 277.974 391.33 269.471 506.88 270.865C507.159 155.176 497.402 71.2662 485.275 83.2533C369.725 81.8595 275.78 174.411 275.501 290.1Z" stroke="#F8F7F7" stroke-width="0.1875" stroke-miterlimit="10"/>
<path d="M315.226 279.368C315.366 220.966 310.487 178.593 304.354 184.726" stroke="#F8F7F7" stroke-width="0.1875" stroke-miterlimit="10"/>
<path d="M398.298 272.541C398.438 172.602 390.074 100.122 379.621 110.576" stroke="#F8F7F7" stroke-width="0.1875" stroke-miterlimit="10"/>
<path d="M275.502 290.101C286.096 221.245 388.404 166.746 504.093 168.139" stroke="#F8F7F7" stroke-width="0.1875" stroke-miterlimit="10"/>
<path d="M275.5 290.101C281.911 184.168 380.735 99.4223 496.424 100.955" stroke="#F8F7F7" stroke-width="0.1875" stroke-miterlimit="10"/>
<path d="M485.418 83.3939C600.968 84.7878 694.634 179.848 694.356 295.398C682.229 307.525 578.527 316.027 462.977 314.633C463.116 198.944 473.152 95.381 485.418 83.3939Z" stroke="#F8F7F7" stroke-width="0.1875" stroke-miterlimit="10"/>
<path d="M591.069 113.362C580.615 123.816 571.974 213.162 571.695 313.1" stroke="#F8F7F7" stroke-width="0.1875" stroke-miterlimit="10"/>
<path d="M666.058 189.324C659.925 195.457 654.907 247.727 654.768 306.129" stroke="#F8F7F7" stroke-width="0.1875" stroke-miterlimit="10"/>
<path d="M474.125 122.978C589.814 124.512 688.499 201.731 694.353 295.397" stroke="#F8F7F7" stroke-width="0.1875" stroke-miterlimit="10"/>
<path d="M466.181 205.914C581.871 207.447 684.04 247.45 694.354 295.399" stroke="#F8F7F7" stroke-width="0.1875" stroke-miterlimit="10"/>
<path d="M462.976 314.631C578.665 316.164 682.228 307.522 694.354 295.396C694.075 411.085 600.269 503.636 484.58 502.103C472.454 514.23 462.697 430.32 462.976 314.631Z" stroke="#F8F7F7" stroke-width="0.1875" stroke-miterlimit="10"/>
<path d="M571.697 312.958C571.557 412.897 579.92 485.377 590.374 474.923" stroke="#F8F7F7" stroke-width="0.1875" stroke-miterlimit="10"/>
<path d="M654.772 306.131C654.632 364.533 659.511 406.906 665.644 400.773" stroke="#F8F7F7" stroke-width="0.1875" stroke-miterlimit="10"/>
<path d="M465.763 417.357C581.453 418.891 683.761 364.252 694.354 295.396" stroke="#F8F7F7" stroke-width="0.1875" stroke-miterlimit="10"/>
<path d="M473.569 484.68C589.258 486.074 688.082 401.467 694.354 295.396" stroke="#F8F7F7" stroke-width="0.1875" stroke-miterlimit="10"/>
<path d="M484.58 502.244C600.269 503.638 694.215 411.087 694.354 295.397C706.481 283.271 622.571 272.259 506.882 270.866C506.742 386.555 496.707 490.118 484.58 502.244Z" stroke="#F8F7F7" stroke-width="0.1875" stroke-miterlimit="10"/>
<path d="M590.373 474.923C600.827 464.469 609.468 375.123 609.747 275.185" stroke="#F8F7F7" stroke-width="0.1875" stroke-miterlimit="10"/>
<path d="M665.642 400.773C671.775 394.64 676.793 342.37 676.932 283.968" stroke="#F8F7F7" stroke-width="0.1875" stroke-miterlimit="10"/>
<path d="M495.731 462.518C611.42 464.051 700.348 389.202 694.354 295.396" stroke="#F8F7F7" stroke-width="0.1875" stroke-miterlimit="10"/>
<path d="M503.815 379.584C619.504 381.117 704.808 343.344 694.493 295.396" stroke="#F8F7F7" stroke-width="0.1875" stroke-miterlimit="10"/>
<path d="M507.02 270.869C622.709 272.402 706.619 283.413 694.492 295.4C694.632 179.85 600.965 84.7901 485.415 83.3963C497.542 71.2698 507.159 155.179 507.02 270.869Z" stroke="#F8F7F7" stroke-width="0.1875" stroke-miterlimit="10"/>
<path d="M609.609 275.185C609.887 175.385 601.524 102.905 591.07 113.359" stroke="#F8F7F7" stroke-width="0.1875" stroke-miterlimit="10"/>
<path d="M676.932 284.108C677.071 225.706 672.193 183.333 666.06 189.466" stroke="#F8F7F7" stroke-width="0.1875" stroke-miterlimit="10"/>
<path d="M504.235 168.14C619.784 169.673 704.949 226.681 694.355 295.398" stroke="#F8F7F7" stroke-width="0.1875" stroke-miterlimit="10"/>
<path d="M496.429 100.956C612.119 102.35 700.767 189.466 694.356 295.398" stroke="#F8F7F7" stroke-width="0.1875" stroke-miterlimit="10"/>
<path d="M336.543 143.48C298.909 180.835 275.632 232.687 275.493 290.113C275.632 232.547 298.909 180.835 336.543 143.48ZM336.543 143.48C349.924 130.239 361.493 122.154 361.632 122.154C369.717 116.718 380.728 110.028 389.231 105.289C393.552 102.919 399.684 100.41 404.284 98.3196C404.423 98.3196 418.641 92.0473 435.924 88.0052C441.082 86.7507 448.19 85.3568 453.487 84.6599C458.505 83.8236 465.335 83.1267 470.352 82.8479C487.636 81.7328 500.041 82.8479 505.059 83.2661C523.737 85.0781 538.372 89.1202 538.512 89.2596C543.251 90.6535 549.662 92.4655 554.401 94.1381C559.141 95.8107 565.413 98.0408 569.873 100.271C574.333 102.501 580.466 105.01 584.787 107.658C588.969 110.167 594.684 113.234 598.726 115.882C602.907 118.53 608.483 122.294 612.385 125.5C619.355 131.075 627.3 137.347 637.057 147.522C640.402 151.007 644.583 155.746 647.65 159.51C650.995 163.691 655.595 169.406 658.522 173.866C661.031 177.769 664.515 182.926 666.885 186.968C670.091 192.822 674.412 200.628 677.06 206.761C680.405 214.288 684.029 224.602 686.678 232.408C686.678 232.408 688.35 237.565 690.023 245.928C694.065 265.303 695.598 285.374 695.459 293.458C695.459 295.41 695.459 300.428 695.041 306.421C694.622 313.53 693.926 318.548 693.786 319.941C692.671 328.026 692.114 330.674 691.138 335.971C690.302 339.873 689.186 345.031 688.071 348.794C687.096 352 685.981 356.321 684.866 359.527C682.775 365.381 679.848 373.186 677.339 378.901C673.575 387.404 667.861 398.415 662.703 406.081C657.546 413.887 650.298 423.922 644.165 431.031C640.82 434.794 636.22 439.812 632.596 443.436C629.112 446.782 624.373 451.102 620.749 454.308C616.985 457.514 607.507 465.32 594.266 473.265C582.418 480.373 572.661 484.834 564.995 488.039C558.444 490.827 546.875 495.009 533.354 498.215C518.022 501.839 507.011 502.675 499.763 503.232C490.842 503.929 478.855 503.929 469.934 503.232C459.759 502.396 446.378 500.166 436.482 498.075C423.798 495.566 400.381 486.785 389.649 480.931C385.328 478.561 379.613 475.495 375.432 472.986C371.25 470.338 365.675 466.714 361.632 463.787C349.924 455.284 341.422 447.339 336.683 442.6C333.059 438.976 328.18 433.958 324.974 429.916C319.12 422.529 311.593 412.214 306.297 404.409C306.157 404.269 297.655 390.749 290.964 374.72C288.316 368.447 285.389 359.805 283.298 353.254C281.904 348.794 280.371 342.801 279.535 338.34C278.28 332.207 277.305 326.771 275.911 314.366C275.911 313.948 274.656 302.518 274.656 292.901C274.656 287.883 274.935 283.562 274.935 281.889C275.214 276.732 275.632 271.993 275.911 269.624C277.723 253.455 281.068 241.328 282.044 237.426C286.643 220.699 292.776 207.458 292.776 207.458C296.819 199.095 302.812 188.223 307.412 180.278C309.781 176.236 313.545 171.357 316.193 167.454C321.49 159.231 330.131 150.171 336.543 143.48Z" stroke="#F8F7F7" stroke-width="0.1875" stroke-miterlimit="10"/>
<path d="M275.505 290.099C275.784 174.41 369.729 81.8584 485.418 83.3916C473.292 95.5181 463.256 199.081 462.977 314.631C347.288 313.098 263.378 302.226 275.505 290.099Z" stroke="#F8F7F7" stroke-width="0.1875" stroke-miterlimit="10"/>
<path d="M304.354 184.725C298.222 190.858 293.204 243.127 293.064 301.53" stroke="#F8F7F7" stroke-width="0.1875" stroke-miterlimit="10"/>
<path d="M379.623 110.573C369.169 121.027 360.527 210.373 360.248 310.312" stroke="#F8F7F7" stroke-width="0.1875" stroke-miterlimit="10"/>
<path d="M275.505 290.097C269.651 196.291 358.578 121.442 474.128 122.975" stroke="#F8F7F7" stroke-width="0.1875" stroke-miterlimit="10"/>
<path d="M275.505 290.097C265.052 242.149 350.495 204.515 466.184 205.909" stroke="#F8F7F7" stroke-width="0.1875" stroke-miterlimit="10"/>
<path d="M275.503 290.099C263.377 302.225 347.286 313.237 462.976 314.63C462.697 430.32 472.454 514.229 484.58 502.242C368.891 500.709 275.364 405.788 275.503 290.099Z" stroke="#F8F7F7" stroke-width="0.1875" stroke-miterlimit="10"/>
<path d="M293.066 301.53C292.927 359.933 297.805 402.305 303.938 396.173" stroke="#F8F7F7" stroke-width="0.1875" stroke-miterlimit="10"/>
<path d="M360.25 310.31C360.111 410.249 368.474 482.729 378.928 472.275" stroke="#F8F7F7" stroke-width="0.1875" stroke-miterlimit="10"/>
<path d="M275.507 290.098C264.914 358.954 350.078 415.823 465.767 417.357" stroke="#F8F7F7" stroke-width="0.1875" stroke-miterlimit="10"/>
<path d="M275.505 290.098C269.232 396.031 357.881 483.146 473.431 484.68" stroke="#F8F7F7" stroke-width="0.1875" stroke-miterlimit="10"/>
<path d="M275.503 290.097C275.224 405.786 368.891 500.707 484.58 502.24C496.707 490.114 506.742 386.551 507.021 271.001C391.332 269.468 287.63 277.97 275.503 290.097Z" stroke="#F8F7F7" stroke-width="0.1875" stroke-miterlimit="10"/>
<path d="M303.94 396.172C310.073 390.04 315.091 337.77 315.23 279.368" stroke="#F8F7F7" stroke-width="0.1875" stroke-miterlimit="10"/>
<path d="M378.925 472.274C389.379 461.82 398.02 372.474 398.299 272.535" stroke="#F8F7F7" stroke-width="0.1875" stroke-miterlimit="10"/>
<path d="M275.503 290.098C281.497 383.904 380.042 461.123 495.731 462.516" stroke="#F8F7F7" stroke-width="0.1875" stroke-miterlimit="10"/>
<path d="M275.502 290.098C285.955 338.046 388.124 378.049 503.814 379.583" stroke="#F8F7F7" stroke-width="0.1875" stroke-miterlimit="10"/>
<path d="M275.501 290.1C287.628 277.974 391.33 269.471 506.88 270.865C507.159 155.176 497.402 71.2662 485.275 83.2533C369.725 81.8595 275.78 174.411 275.501 290.1Z" stroke="#F8F7F7" stroke-width="0.1875" stroke-miterlimit="10"/>
<path d="M315.226 279.368C315.366 220.966 310.487 178.593 304.354 184.726" stroke="#F8F7F7" stroke-width="0.1875" stroke-miterlimit="10"/>
<path d="M398.298 272.541C398.438 172.602 390.074 100.122 379.621 110.576" stroke="#F8F7F7" stroke-width="0.1875" stroke-miterlimit="10"/>
<path d="M275.502 290.101C286.096 221.245 388.404 166.746 504.093 168.139" stroke="#F8F7F7" stroke-width="0.1875" stroke-miterlimit="10"/>
<path d="M275.5 290.101C281.911 184.168 380.735 99.4223 496.424 100.955" stroke="#F8F7F7" stroke-width="0.1875" stroke-miterlimit="10"/>
<path d="M485.418 83.3939C600.968 84.7878 694.634 179.848 694.356 295.398C682.229 307.525 578.527 316.027 462.977 314.633C463.116 198.944 473.152 95.381 485.418 83.3939Z" stroke="#F8F7F7" stroke-width="0.1875" stroke-miterlimit="10"/>
<path d="M591.069 113.362C580.615 123.816 571.974 213.162 571.695 313.1" stroke="#F8F7F7" stroke-width="0.1875" stroke-miterlimit="10"/>
<path d="M666.058 189.324C659.925 195.457 654.907 247.727 654.768 306.129" stroke="#F8F7F7" stroke-width="0.1875" stroke-miterlimit="10"/>
<path d="M474.125 122.978C589.814 124.512 688.499 201.731 694.353 295.397" stroke="#F8F7F7" stroke-width="0.1875" stroke-miterlimit="10"/>
<path d="M466.181 205.914C581.871 207.447 684.04 247.45 694.354 295.399" stroke="#F8F7F7" stroke-width="0.1875" stroke-miterlimit="10"/>
<path d="M462.976 314.631C578.665 316.164 682.228 307.522 694.354 295.396C694.075 411.085 600.269 503.636 484.58 502.103C472.454 514.23 462.697 430.32 462.976 314.631Z" stroke="#F8F7F7" stroke-width="0.1875" stroke-miterlimit="10"/>
<path d="M571.697 312.958C571.557 412.897 579.92 485.377 590.374 474.923" stroke="#F8F7F7" stroke-width="0.1875" stroke-miterlimit="10"/>
<path d="M654.772 306.131C654.632 364.533 659.511 406.906 665.644 400.773" stroke="#F8F7F7" stroke-width="0.1875" stroke-miterlimit="10"/>
<path d="M465.763 417.357C581.453 418.891 683.761 364.252 694.354 295.396" stroke="#F8F7F7" stroke-width="0.1875" stroke-miterlimit="10"/>
<path d="M473.569 484.68C589.258 486.074 688.082 401.467 694.354 295.396" stroke="#F8F7F7" stroke-width="0.1875" stroke-miterlimit="10"/>
<path d="M484.58 502.244C600.269 503.638 694.215 411.087 694.354 295.397C706.481 283.271 622.571 272.259 506.882 270.866C506.742 386.555 496.707 490.118 484.58 502.244Z" stroke="#F8F7F7" stroke-width="0.1875" stroke-miterlimit="10"/>
<path d="M590.373 474.923C600.827 464.469 609.468 375.123 609.747 275.185" stroke="#F8F7F7" stroke-width="0.1875" stroke-miterlimit="10"/>
<path d="M665.642 400.773C671.775 394.64 676.793 342.37 676.932 283.968" stroke="#F8F7F7" stroke-width="0.1875" stroke-miterlimit="10"/>
<path d="M495.731 462.518C611.42 464.051 700.348 389.202 694.354 295.396" stroke="#F8F7F7" stroke-width="0.1875" stroke-miterlimit="10"/>
<path d="M503.815 379.584C619.504 381.117 704.808 343.344 694.493 295.396" stroke="#F8F7F7" stroke-width="0.1875" stroke-miterlimit="10"/>
<path d="M507.02 270.869C622.709 272.402 706.619 283.413 694.492 295.4C694.632 179.85 600.965 84.7901 485.415 83.3963C497.542 71.2698 507.159 155.179 507.02 270.869Z" stroke="#F8F7F7" stroke-width="0.1875" stroke-miterlimit="10"/>
<path d="M609.609 275.185C609.887 175.385 601.524 102.905 591.07 113.359" stroke="#F8F7F7" stroke-width="0.1875" stroke-miterlimit="10"/>
<path d="M676.932 284.108C677.071 225.706 672.193 183.333 666.06 189.466" stroke="#F8F7F7" stroke-width="0.1875" stroke-miterlimit="10"/>
<path d="M504.235 168.14C619.784 169.673 704.949 226.681 694.355 295.398" stroke="#F8F7F7" stroke-width="0.1875" stroke-miterlimit="10"/>
<path d="M496.429 100.956C612.119 102.35 700.767 189.466 694.356 295.398" stroke="#F8F7F7" stroke-width="0.1875" stroke-miterlimit="10"/>
<path d="M274.379 292.474C274.379 284.947 274.936 277.141 275.354 272.402C275.494 270.451 275.912 266.409 276.609 261.809C277.166 257.767 277.166 257.767 278.56 250.798C280.093 242.992 283.02 232.956 283.16 232.538C284.693 227.381 286.923 220.69 289.014 215.673C295.286 200.48 299.328 191.977 310.619 174.694C313.127 170.791 316.891 165.773 319.818 162.149C324.696 156.295 331.387 148.768 336.544 143.332C374.596 105.559 427.144 82.5602 485.407 83.3965C600.957 84.7903 694.624 179.851 694.345 295.401C694.624 179.851 600.957 84.7903 485.407 83.3965C427.284 82.6996 374.596 105.698 336.544 143.471C340.029 140.265 344.628 135.666 348.392 132.599C352.155 129.393 357.452 125.212 361.494 122.285C372.645 114.201 382.82 108.486 389.371 105.141C393.134 103.189 404.564 97.4744 419.896 92.4565C429.374 89.39 442.477 86.463 452.373 84.651C466.59 82.0026 492.097 81.3057 505.06 83.1177C510.078 83.8146 516.908 84.5116 521.926 85.3479C526.944 86.1842 533.634 87.7174 538.513 88.9719C549.106 91.7596 559.978 95.5229 569.874 99.8439C589.667 108.764 607.647 120.194 624.652 135.108C636.639 145.701 644.863 155.737 647.233 158.385C650.299 162.009 654.202 167.167 656.99 171.069C659.777 175.112 663.401 180.687 665.91 184.869C672.461 195.462 677.479 207.309 679.988 212.885C681.661 216.648 683.473 221.805 684.727 225.708C685.842 228.914 687.097 233.235 687.933 236.441C688.909 240.065 690.024 244.665 691 250.519C692.812 260.833 693.648 267.106 693.787 269.196C694.345 274.493 695.042 280.486 695.32 288.013C695.599 292.892 695.32 298.328 695.181 301.952C694.484 317.702 692.115 329.55 691.139 334.568C690.721 336.798 690.024 339.864 689.466 342.094C688.63 345.3 687.515 349.621 686.539 352.688C685.703 355.894 684.17 360.214 683.055 363.42C680.685 369.553 677.34 377.777 674.552 383.771C672.601 387.952 669.534 393.388 667.304 397.43C662.844 405.515 655.596 415.69 649.881 423.077C645.281 429.071 638.591 436.597 633.155 441.894C629.67 445.239 625.071 449.699 621.307 452.766C617.265 456.111 611.829 460.571 607.508 463.499C600.399 468.377 592.455 473.952 579.492 480.503C570.711 484.964 558.445 489.703 549.106 492.909C535.446 497.648 512.169 501.969 499.346 502.526C482.201 503.223 479.414 503.363 464.639 502.108C455.858 501.411 444.289 499.739 435.786 497.369C426.169 494.721 413.485 490.957 404.285 487.194C389.51 481.061 378.638 474.51 375.014 472.28C368.742 468.516 359.124 462.105 348.671 453.184C337.938 444.124 331.666 437.155 325.672 430.464C322.327 426.84 318.285 421.544 315.358 417.641C312.291 413.599 308.388 408.024 305.74 403.563C301.14 395.758 295.565 384.886 291.662 376.801C289.711 372.62 287.62 366.905 286.087 362.584C283.717 356.312 281.487 347.531 279.675 340.979C279.396 339.864 278.56 336.659 277.306 329.132C276.051 319.793 274.379 304.043 274.379 292.474Z" stroke="#F8F7F7" stroke-width="0.1875" stroke-miterlimit="10"/>
</g>
<g clip-path="url(#clip1_133_2)">
<path d="M487.65 83.2561C603.339 83.5349 695.891 177.48 694.358 293.17C682.231 281.043 578.668 271.007 463.118 270.729C464.651 155.039 475.523 71.1297 487.65 83.2561Z" stroke="#F8F7F7" stroke-width="0.1875" stroke-miterlimit="10"/>
<path d="M593.025 112.103C586.892 105.97 534.623 100.953 476.221 100.813" stroke="#F8F7F7" stroke-width="0.1875" stroke-miterlimit="10"/>
<path d="M667.177 187.375C656.724 176.921 567.378 168.279 467.439 168" stroke="#F8F7F7" stroke-width="0.1875" stroke-miterlimit="10"/>
<path d="M487.651 83.2547C581.456 77.4005 656.306 166.328 654.773 281.878" stroke="#F8F7F7" stroke-width="0.1875" stroke-miterlimit="10"/>
<path d="M487.65 83.2535C535.598 72.7996 573.232 158.243 571.838 273.932" stroke="#F8F7F7" stroke-width="0.1875" stroke-miterlimit="10"/>
<path d="M487.651 83.2542C475.524 71.1277 464.513 155.037 463.119 270.726C347.429 270.448 263.52 280.205 275.507 292.331C277.04 176.642 371.961 83.1148 487.651 83.2542Z" stroke="#F8F7F7" stroke-width="0.1875" stroke-miterlimit="10"/>
<path d="M476.222 100.815C417.82 100.675 375.447 105.554 381.58 111.687" stroke="#F8F7F7" stroke-width="0.1875" stroke-miterlimit="10"/>
<path d="M467.439 168.004C367.501 167.864 295.021 176.227 305.474 186.681" stroke="#F8F7F7" stroke-width="0.1875" stroke-miterlimit="10"/>
<path d="M487.651 83.2544C418.795 72.6612 361.926 157.825 360.393 273.514" stroke="#F8F7F7" stroke-width="0.1875" stroke-miterlimit="10"/>
<path d="M487.651 83.253C381.718 76.9807 294.603 165.629 293.07 281.179" stroke="#F8F7F7" stroke-width="0.1875" stroke-miterlimit="10"/>
<path d="M487.651 83.2569C371.961 82.9781 277.04 176.645 275.507 292.334C287.634 304.46 391.197 314.496 506.746 314.775C508.28 199.086 499.777 95.3833 487.651 83.2569Z" stroke="#F8F7F7" stroke-width="0.1875" stroke-miterlimit="10"/>
<path d="M381.579 111.694C387.712 117.827 439.981 122.845 498.384 122.984" stroke="#F8F7F7" stroke-width="0.1875" stroke-miterlimit="10"/>
<path d="M305.476 186.682C315.93 197.135 405.276 205.777 505.215 206.056" stroke="#F8F7F7" stroke-width="0.1875" stroke-miterlimit="10"/>
<path d="M487.651 83.2558C393.845 89.2494 316.626 187.794 315.232 303.484" stroke="#F8F7F7" stroke-width="0.1875" stroke-miterlimit="10"/>
<path d="M487.651 83.2573C439.702 93.7112 399.699 195.88 398.166 311.57" stroke="#F8F7F7" stroke-width="0.1875" stroke-miterlimit="10"/>
<path d="M487.65 83.2495C499.777 95.376 508.279 199.078 506.885 314.628C622.575 314.907 706.484 305.15 694.497 293.024C695.891 177.474 603.339 83.5283 487.65 83.2495Z" stroke="#F8F7F7" stroke-width="0.1875" stroke-miterlimit="10"/>
<path d="M498.383 122.976C556.785 123.116 599.158 118.237 593.025 112.104" stroke="#F8F7F7" stroke-width="0.1875" stroke-miterlimit="10"/>
<path d="M505.213 206.048C605.152 206.188 677.632 197.825 667.178 187.371" stroke="#F8F7F7" stroke-width="0.1875" stroke-miterlimit="10"/>
<path d="M487.652 83.2493C556.508 93.8426 611.008 196.151 609.614 311.84" stroke="#F8F7F7" stroke-width="0.1875" stroke-miterlimit="10"/>
<path d="M487.651 83.2508C593.584 89.6625 678.33 188.486 676.797 304.175" stroke="#F8F7F7" stroke-width="0.1875" stroke-miterlimit="10"/>
<path d="M694.357 293.168C692.963 408.717 597.903 502.384 482.353 502.105C470.227 489.979 461.724 386.277 463.118 270.727C578.807 270.866 682.37 280.902 694.357 293.168Z" stroke="#F8F7F7" stroke-width="0.1875" stroke-miterlimit="10"/>
<path d="M664.391 398.819C653.937 388.365 564.592 379.723 464.653 379.444" stroke="#F8F7F7" stroke-width="0.1875" stroke-miterlimit="10"/>
<path d="M588.424 473.809C582.291 467.676 530.022 462.658 471.62 462.519" stroke="#F8F7F7" stroke-width="0.1875" stroke-miterlimit="10"/>
<path d="M654.773 281.873C653.24 397.562 576.021 496.247 482.354 502.101" stroke="#F8F7F7" stroke-width="0.1875" stroke-miterlimit="10"/>
<path d="M571.838 273.928C570.305 389.617 530.301 491.786 482.353 502.101" stroke="#F8F7F7" stroke-width="0.1875" stroke-miterlimit="10"/>
<path d="M463.12 270.726C461.586 386.416 470.228 489.978 482.355 502.105C366.665 501.826 274.114 408.02 275.647 292.331C263.521 280.204 347.43 270.448 463.12 270.726Z" stroke="#F8F7F7" stroke-width="0.1875" stroke-miterlimit="10"/>
<path d="M464.792 379.449C364.853 379.309 292.373 387.672 302.827 398.126" stroke="#F8F7F7" stroke-width="0.1875" stroke-miterlimit="10"/>
<path d="M471.621 462.519C413.219 462.38 370.846 467.258 376.979 473.391" stroke="#F8F7F7" stroke-width="0.1875" stroke-miterlimit="10"/>
<path d="M360.393 273.514C358.86 389.203 413.499 491.512 482.355 502.105" stroke="#F8F7F7" stroke-width="0.1875" stroke-miterlimit="10"/>
<path d="M293.07 281.32C291.677 397.009 376.283 495.833 482.355 502.105" stroke="#F8F7F7" stroke-width="0.1875" stroke-miterlimit="10"/>
<path d="M275.506 292.334C274.112 408.023 366.664 501.968 482.353 502.108C494.479 514.234 505.491 430.325 506.885 314.635C391.195 314.496 287.632 304.46 275.506 292.334Z" stroke="#F8F7F7" stroke-width="0.1875" stroke-miterlimit="10"/>
<path d="M302.826 398.125C313.28 408.579 402.625 417.221 502.564 417.499" stroke="#F8F7F7" stroke-width="0.1875" stroke-miterlimit="10"/>
<path d="M376.977 473.394C383.11 479.527 435.379 484.544 493.781 484.684" stroke="#F8F7F7" stroke-width="0.1875" stroke-miterlimit="10"/>
<path d="M315.23 303.483C313.696 419.172 388.546 508.1 482.352 502.106" stroke="#F8F7F7" stroke-width="0.1875" stroke-miterlimit="10"/>
<path d="M398.164 311.566C396.63 427.255 434.404 512.559 482.352 502.244" stroke="#F8F7F7" stroke-width="0.1875" stroke-miterlimit="10"/>
<path d="M506.883 314.771C505.349 430.46 494.338 514.37 482.351 502.243C597.901 502.383 692.961 408.716 694.355 293.166C706.482 305.293 622.572 314.91 506.883 314.771Z" stroke="#F8F7F7" stroke-width="0.1875" stroke-miterlimit="10"/>
<path d="M502.566 417.363C602.366 417.642 674.846 409.278 664.392 398.825" stroke="#F8F7F7" stroke-width="0.1875" stroke-miterlimit="10"/>
<path d="M493.645 484.681C552.048 484.82 594.421 479.942 588.288 473.809" stroke="#F8F7F7" stroke-width="0.1875" stroke-miterlimit="10"/>
<path d="M609.612 311.986C608.078 427.536 551.07 512.7 482.353 502.107" stroke="#F8F7F7" stroke-width="0.1875" stroke-miterlimit="10"/>
<path d="M676.796 304.181C675.402 419.87 588.286 508.519 482.354 502.107" stroke="#F8F7F7" stroke-width="0.1875" stroke-miterlimit="10"/>
<path d="M634.269 144.296C596.914 106.662 545.063 83.3848 487.636 83.2454C545.202 83.3848 596.914 106.662 634.269 144.296ZM634.269 144.296C647.51 157.677 655.595 169.246 655.595 169.385C661.031 177.469 667.721 188.481 672.46 196.983C674.83 201.304 677.339 207.437 679.43 212.037C679.43 212.176 685.702 226.394 689.744 243.677C690.998 248.834 692.392 255.943 693.089 261.24C693.926 266.258 694.622 273.087 694.901 278.105C696.016 295.389 694.901 307.794 694.483 312.812C692.671 331.49 688.629 346.125 688.49 346.264C687.096 351.003 685.284 357.415 683.611 362.154C681.938 366.893 679.708 373.166 677.478 377.626C675.248 382.086 672.739 388.219 670.091 392.54C667.582 396.722 664.515 402.436 661.867 406.479C659.219 410.66 655.455 416.236 652.25 420.138C646.674 427.108 640.402 435.052 630.227 444.809C626.742 448.155 622.003 452.336 618.24 455.403C614.058 458.748 608.343 463.348 603.883 466.275C599.98 468.784 594.823 472.268 590.781 474.638C584.927 477.844 577.121 482.164 570.988 484.813C563.461 488.158 553.147 491.782 545.341 494.43C545.341 494.43 540.184 496.103 531.821 497.776C512.447 501.818 492.375 503.351 484.291 503.212C482.34 503.212 477.322 503.212 471.328 502.793C464.22 502.375 459.202 501.678 457.808 501.539C449.724 500.424 447.075 499.866 441.779 498.891C437.876 498.054 432.719 496.939 428.955 495.824C425.749 494.849 421.428 493.733 418.223 492.618C412.368 490.528 404.563 487.601 398.848 485.092C390.346 481.328 379.334 475.613 371.668 470.456C363.863 465.299 353.827 458.051 346.718 451.918C342.955 448.573 337.937 443.973 334.313 440.349C330.968 436.864 326.647 432.125 323.441 428.501C320.235 424.738 312.43 415.26 304.485 402.018C297.376 390.171 292.916 380.414 289.71 372.748C286.922 366.196 282.741 354.627 279.535 341.107C275.911 325.775 275.074 314.763 274.517 307.515C273.82 298.595 273.82 286.608 274.517 277.687C275.353 267.512 277.583 254.131 279.674 244.235C282.183 231.551 290.964 208.134 296.818 197.402C299.188 193.081 302.254 187.366 304.763 183.184C307.412 179.003 311.036 173.427 313.963 169.385C322.465 157.677 330.41 149.174 335.149 144.435C338.773 140.811 343.791 135.933 347.833 132.727C355.221 126.873 365.535 119.346 373.341 114.049C373.48 113.91 387 105.408 403.03 98.7172C409.302 96.0688 417.944 93.1418 424.495 91.051C428.955 89.6571 434.949 88.1239 439.409 87.2876C445.542 86.0331 450.978 85.0574 463.383 83.6636C463.801 83.6636 475.231 82.4091 484.848 82.4091C489.866 82.4091 494.187 82.6879 495.86 82.6879C501.017 82.9667 505.756 83.3848 508.126 83.6636C524.294 85.4756 536.421 88.8208 540.324 89.7965C557.05 94.3962 570.291 100.529 570.291 100.529C578.654 104.571 589.526 110.565 597.471 115.165C601.513 117.534 606.392 121.297 610.295 123.946C618.518 129.242 627.578 137.884 634.269 144.296Z" stroke="#F8F7F7" stroke-width="0.1875" stroke-miterlimit="10"/>
<path d="M487.65 83.2561C603.339 83.5349 695.891 177.48 694.358 293.17C682.231 281.043 578.668 271.007 463.118 270.729C464.651 155.039 475.523 71.1297 487.65 83.2561Z" stroke="#F8F7F7" stroke-width="0.1875" stroke-miterlimit="10"/>
<path d="M593.025 112.103C586.892 105.97 534.623 100.953 476.221 100.813" stroke="#F8F7F7" stroke-width="0.1875" stroke-miterlimit="10"/>
<path d="M667.177 187.375C656.724 176.921 567.378 168.279 467.439 168" stroke="#F8F7F7" stroke-width="0.1875" stroke-miterlimit="10"/>
<path d="M487.651 83.2547C581.456 77.4005 656.306 166.328 654.773 281.878" stroke="#F8F7F7" stroke-width="0.1875" stroke-miterlimit="10"/>
<path d="M487.65 83.2535C535.598 72.7996 573.232 158.243 571.838 273.932" stroke="#F8F7F7" stroke-width="0.1875" stroke-miterlimit="10"/>
<path d="M487.651 83.2542C475.524 71.1277 464.513 155.037 463.119 270.726C347.429 270.448 263.52 280.205 275.507 292.331C277.04 176.642 371.961 83.1148 487.651 83.2542Z" stroke="#F8F7F7" stroke-width="0.1875" stroke-miterlimit="10"/>
<path d="M476.222 100.815C417.82 100.675 375.447 105.554 381.58 111.687" stroke="#F8F7F7" stroke-width="0.1875" stroke-miterlimit="10"/>
<path d="M467.439 168.004C367.501 167.864 295.021 176.227 305.474 186.681" stroke="#F8F7F7" stroke-width="0.1875" stroke-miterlimit="10"/>
<path d="M487.651 83.2544C418.795 72.6612 361.926 157.825 360.393 273.514" stroke="#F8F7F7" stroke-width="0.1875" stroke-miterlimit="10"/>
<path d="M487.651 83.253C381.718 76.9807 294.603 165.629 293.07 281.179" stroke="#F8F7F7" stroke-width="0.1875" stroke-miterlimit="10"/>
<path d="M487.651 83.2569C371.961 82.9781 277.04 176.645 275.507 292.334C287.634 304.46 391.197 314.496 506.746 314.775C508.28 199.086 499.777 95.3833 487.651 83.2569Z" stroke="#F8F7F7" stroke-width="0.1875" stroke-miterlimit="10"/>
<path d="M381.579 111.694C387.712 117.827 439.981 122.845 498.384 122.984" stroke="#F8F7F7" stroke-width="0.1875" stroke-miterlimit="10"/>
<path d="M305.476 186.682C315.93 197.135 405.276 205.777 505.215 206.056" stroke="#F8F7F7" stroke-width="0.1875" stroke-miterlimit="10"/>
<path d="M487.651 83.2558C393.845 89.2494 316.626 187.794 315.232 303.484" stroke="#F8F7F7" stroke-width="0.1875" stroke-miterlimit="10"/>
<path d="M487.651 83.2573C439.702 93.7112 399.699 195.88 398.166 311.57" stroke="#F8F7F7" stroke-width="0.1875" stroke-miterlimit="10"/>
<path d="M487.65 83.2495C499.777 95.376 508.279 199.078 506.885 314.628C622.575 314.907 706.484 305.15 694.497 293.024C695.891 177.474 603.339 83.5283 487.65 83.2495Z" stroke="#F8F7F7" stroke-width="0.1875" stroke-miterlimit="10"/>
<path d="M498.383 122.976C556.785 123.116 599.158 118.237 593.025 112.104" stroke="#F8F7F7" stroke-width="0.1875" stroke-miterlimit="10"/>
<path d="M505.213 206.048C605.152 206.188 677.632 197.825 667.178 187.371" stroke="#F8F7F7" stroke-width="0.1875" stroke-miterlimit="10"/>
<path d="M487.652 83.2493C556.508 93.8426 611.008 196.151 609.614 311.84" stroke="#F8F7F7" stroke-width="0.1875" stroke-miterlimit="10"/>
<path d="M487.651 83.2508C593.584 89.6625 678.33 188.486 676.797 304.175" stroke="#F8F7F7" stroke-width="0.1875" stroke-miterlimit="10"/>
<path d="M694.357 293.168C692.963 408.717 597.903 502.384 482.353 502.105C470.227 489.979 461.724 386.277 463.118 270.727C578.807 270.866 682.37 280.902 694.357 293.168Z" stroke="#F8F7F7" stroke-width="0.1875" stroke-miterlimit="10"/>
<path d="M664.391 398.819C653.937 388.365 564.592 379.723 464.653 379.444" stroke="#F8F7F7" stroke-width="0.1875" stroke-miterlimit="10"/>
<path d="M588.424 473.809C582.291 467.676 530.022 462.658 471.62 462.519" stroke="#F8F7F7" stroke-width="0.1875" stroke-miterlimit="10"/>
<path d="M654.773 281.873C653.24 397.562 576.021 496.247 482.354 502.101" stroke="#F8F7F7" stroke-width="0.1875" stroke-miterlimit="10"/>
<path d="M571.838 273.928C570.305 389.617 530.301 491.786 482.353 502.101" stroke="#F8F7F7" stroke-width="0.1875" stroke-miterlimit="10"/>
<path d="M463.12 270.726C461.586 386.416 470.228 489.978 482.355 502.105C366.665 501.826 274.114 408.02 275.647 292.331C263.521 280.204 347.43 270.448 463.12 270.726Z" stroke="#F8F7F7" stroke-width="0.1875" stroke-miterlimit="10"/>
<path d="M464.792 379.449C364.853 379.309 292.373 387.672 302.827 398.126" stroke="#F8F7F7" stroke-width="0.1875" stroke-miterlimit="10"/>
<path d="M471.621 462.519C413.219 462.38 370.846 467.258 376.979 473.391" stroke="#F8F7F7" stroke-width="0.1875" stroke-miterlimit="10"/>
<path d="M360.393 273.514C358.86 389.203 413.499 491.512 482.355 502.105" stroke="#F8F7F7" stroke-width="0.1875" stroke-miterlimit="10"/>
<path d="M293.07 281.32C291.677 397.009 376.283 495.833 482.355 502.105" stroke="#F8F7F7" stroke-width="0.1875" stroke-miterlimit="10"/>
<path d="M275.506 292.334C274.112 408.023 366.664 501.968 482.353 502.108C494.479 514.234 505.491 430.325 506.885 314.635C391.195 314.496 287.632 304.46 275.506 292.334Z" stroke="#F8F7F7" stroke-width="0.1875" stroke-miterlimit="10"/>
<path d="M302.826 398.125C313.28 408.579 402.625 417.221 502.564 417.499" stroke="#F8F7F7" stroke-width="0.1875" stroke-miterlimit="10"/>
<path d="M376.977 473.394C383.11 479.527 435.379 484.544 493.781 484.684" stroke="#F8F7F7" stroke-width="0.1875" stroke-miterlimit="10"/>
<path d="M315.23 303.483C313.696 419.172 388.546 508.1 482.352 502.106" stroke="#F8F7F7" stroke-width="0.1875" stroke-miterlimit="10"/>
<path d="M398.164 311.566C396.63 427.255 434.404 512.559 482.352 502.244" stroke="#F8F7F7" stroke-width="0.1875" stroke-miterlimit="10"/>
<path d="M506.883 314.771C505.349 430.46 494.338 514.37 482.351 502.243C597.901 502.383 692.961 408.716 694.355 293.166C706.482 305.293 622.572 314.91 506.883 314.771Z" stroke="#F8F7F7" stroke-width="0.1875" stroke-miterlimit="10"/>
<path d="M502.566 417.363C602.366 417.642 674.846 409.278 664.392 398.825" stroke="#F8F7F7" stroke-width="0.1875" stroke-miterlimit="10"/>
<path d="M493.645 484.681C552.048 484.82 594.421 479.942 588.288 473.809" stroke="#F8F7F7" stroke-width="0.1875" stroke-miterlimit="10"/>
<path d="M609.612 311.986C608.078 427.536 551.07 512.7 482.353 502.107" stroke="#F8F7F7" stroke-width="0.1875" stroke-miterlimit="10"/>
<path d="M676.796 304.181C675.402 419.87 588.286 508.519 482.354 502.107" stroke="#F8F7F7" stroke-width="0.1875" stroke-miterlimit="10"/>
<path d="M485.275 82.1267C492.802 82.1267 500.607 82.6842 505.346 83.1024C507.298 83.2418 511.34 83.6599 515.939 84.3568C519.982 84.9144 519.982 84.9144 526.951 86.3083C534.756 87.8415 544.792 90.7685 545.21 90.9079C550.368 92.4412 557.058 94.6713 562.076 96.7621C577.269 103.034 585.771 107.077 603.055 118.367C606.958 120.876 611.976 124.639 615.6 127.566C621.454 132.445 628.98 139.135 634.416 144.292C672.19 182.344 695.188 234.892 694.352 293.155C692.958 408.705 597.898 502.372 482.348 502.093C597.898 502.372 692.958 408.705 694.352 293.155C695.049 235.032 672.05 182.344 634.277 144.292C637.483 147.777 642.083 152.377 645.149 156.14C648.355 159.903 652.537 165.2 655.464 169.242C663.548 180.393 669.263 190.568 672.608 197.119C674.559 200.882 680.274 212.312 685.292 227.644C688.358 237.123 691.285 250.225 693.097 260.121C695.746 274.338 696.443 299.846 694.631 312.808C693.934 317.826 693.237 324.656 692.401 329.674C691.564 334.692 690.031 341.382 688.777 346.261C685.989 356.854 682.225 367.726 677.905 377.622C668.984 397.415 657.554 415.396 642.64 432.401C632.047 444.388 622.011 452.611 619.363 454.981C615.739 458.047 610.582 461.95 606.679 464.738C602.637 467.525 597.061 471.149 592.88 473.658C582.287 480.21 570.439 485.227 564.864 487.736C561.1 489.409 555.943 491.221 552.04 492.475C548.834 493.59 544.513 494.845 541.308 495.681C537.684 496.657 533.084 497.772 527.23 498.748C516.915 500.56 510.643 501.396 508.552 501.535C503.256 502.093 497.262 502.79 489.735 503.069C484.857 503.347 479.421 503.069 475.797 502.929C460.046 502.232 448.199 499.863 443.181 498.887C440.951 498.469 437.884 497.772 435.654 497.214C432.448 496.378 428.127 495.263 425.061 494.287C421.855 493.451 417.534 491.918 414.328 490.803C408.195 488.433 399.971 485.088 393.978 482.3C389.796 480.349 384.36 477.282 380.318 475.052C372.234 470.592 362.059 463.344 354.671 457.629C348.678 453.029 341.151 446.339 335.854 440.903C332.509 437.418 328.049 432.819 324.982 429.055C321.637 425.013 317.177 419.577 314.25 415.256C309.371 408.148 303.796 400.203 297.245 387.24C292.785 378.459 288.046 366.193 284.84 356.854C280.101 343.194 275.78 319.917 275.222 307.094C274.525 289.949 274.386 287.162 275.64 272.387C276.337 263.606 278.01 252.037 280.379 243.534C283.028 233.917 286.791 221.233 290.554 212.033C296.687 197.259 303.238 186.387 305.469 182.763C309.232 176.49 315.644 166.873 324.564 156.419C333.624 145.686 340.594 139.414 347.284 133.42C350.908 130.075 356.205 126.033 360.107 123.106C364.15 120.039 369.725 116.137 374.185 113.488C381.991 108.889 392.863 103.313 400.947 99.4104C405.129 97.459 410.843 95.3683 415.164 93.835C421.437 91.4655 430.218 89.2353 436.769 87.4233C437.884 87.1446 441.09 86.3082 448.617 85.0538C457.955 83.7993 473.706 82.1267 485.275 82.1267Z" stroke="#F8F7F7" stroke-width="0.1875" stroke-miterlimit="10"/>
</g>
<path d="M904.294 473.422C897.234 490.488 878.825 501.997 851.41 508.119C824.006 514.238 787.694 514.952 744.99 510.508C659.588 501.62 548.709 472.112 432.604 424.08C316.499 376.049 217.179 318.601 150.457 264.556C117.094 237.532 91.8993 211.373 76.8278 187.683C61.7495 163.982 56.8513 142.831 63.9114 125.765C70.9715 108.699 89.3803 97.1904 116.796 91.0686C144.199 84.9495 180.511 84.2354 223.215 88.6794C308.618 97.5671 419.497 127.076 535.602 175.107C651.706 223.138 751.027 280.587 817.748 334.631C851.111 361.655 876.306 387.814 891.378 411.504C906.456 435.205 911.354 456.356 904.294 473.422Z" stroke="white" stroke-width="0.75"/>
<path d="M912.694 239.373C917.798 257.122 910.563 277.591 892.925 299.455C875.296 321.308 847.33 344.482 811.151 367.6C738.797 413.833 633.668 459.798 512.915 494.526C392.162 529.254 278.676 546.161 192.815 545.429C149.883 545.064 113.879 540.288 87.3331 531.139C60.7753 521.985 43.771 508.488 38.6663 490.738C33.5617 472.989 40.7974 452.52 58.435 430.656C76.0645 408.803 104.03 385.63 140.209 362.512C212.563 316.278 317.692 270.313 438.445 235.585C559.198 200.857 672.684 183.95 758.545 184.682C801.478 185.048 837.481 189.823 864.027 198.973C890.585 208.126 907.589 221.623 912.694 239.373Z" stroke="white" stroke-width="0.75"/>
<defs>
<clipPath id="clip0_133_2">
<rect width="421.499" height="421.499" fill="white" transform="translate(695.75 82.0003) rotate(90)"/>
</clipPath>
<clipPath id="clip1_133_2">
<rect width="421.499" height="421.499" fill="white" transform="translate(695.749 503.5) rotate(180)"/>
</clipPath>
</defs>
</svg>
