<svg width="248" height="248" viewBox="0 0 248 248" fill="none" xmlns="http://www.w3.org/2000/svg">
<circle cx="124.234" cy="124.427" r="123.5" fill="white"/>
<circle cx="94.4236" cy="34.995" r="24.842" fill="#E5E5E5"/>
<circle cx="107.445" cy="80.4975" r="12.421" transform="rotate(165.716 107.445 80.4975)" fill="#E5E5E5"/>
<circle cx="55.7412" cy="45.997" r="11.0014" fill="#E5E5E5"/>
<ellipse cx="124.959" cy="70.18" rx="5.67816" ry="5.32328" transform="rotate(165.716 124.959 70.18)" fill="#E5E5E5"/>
<circle cx="68.517" cy="61.6114" r="4.61351" fill="#E5E5E5"/>
<ellipse cx="116.842" cy="64.1895" rx="2.12931" ry="2.4842" transform="rotate(165.716 116.842 64.1895)" fill="#E5E5E5"/>
<circle cx="123.879" cy="22.5745" r="4.61351" fill="#E5E5E5"/>
<circle cx="94.8327" cy="89.9349" r="2.12931" transform="rotate(165.716 94.8327 89.9349)" fill="#E5E5E5"/>
<circle cx="132.041" cy="37.1248" r="8.51724" fill="#E5E5E5"/>
<circle cx="88.9548" cy="84.1072" r="4.25862" transform="rotate(165.716 88.9548 84.1072)" fill="#E5E5E5"/>
<ellipse cx="53.9667" cy="77.9371" rx="11.3563" ry="7.45259" fill="#E5E5E5"/>
<ellipse rx="5.57258" ry="3.79722" transform="matrix(-0.986911 0.161264 -0.368751 -0.929528 53.7866 90.2103)" fill="#E5E5E5"/>
<ellipse cx="38.3518" cy="73.6785" rx="4.96839" ry="3.19397" fill="#E5E5E5"/>
<ellipse rx="2.54747" ry="1.62738" transform="matrix(-0.986911 0.161264 -0.368751 -0.929528 67.9286 78.446)" fill="#E5E5E5"/>
<ellipse cx="38.3518" cy="79.0013" rx="2.12931" ry="1.41954" fill="#E5E5E5"/>
<ellipse rx="0.955299" ry="0.759444" transform="matrix(-0.986911 0.161264 -0.368751 -0.929528 67.9374 74.7656)" fill="#E5E5E5"/>
<ellipse cx="68.1621" cy="71.904" rx="2.12931" ry="1.41954" fill="#E5E5E5"/>
<ellipse rx="0.955299" ry="0.650952" transform="matrix(-0.986911 0.161264 -0.368751 -0.929528 53.855 100.245)" fill="#E5E5E5"/>
<ellipse cx="74.1952" cy="72.9687" rx="3.90374" ry="2.4842" fill="#E5E5E5"/>
<ellipse rx="1.9106" ry="1.3019" transform="matrix(-0.986911 0.161264 -0.368751 -0.929528 54.0843 97.0754)" fill="#E5E5E5"/>
</svg>
