<svg width="177" height="176" viewBox="0 0 177 176" fill="none" xmlns="http://www.w3.org/2000/svg">
<circle cx="88.949" cy="88.1606" r="87.5094" transform="rotate(90 88.949 88.1606)" fill="white"/>
<path d="M88.9489 99.7067C64.7947 99.7067 42.9341 98.3751 27.1183 96.2241C19.2078 95.1483 12.8241 93.8694 8.42531 92.455C6.22345 91.747 4.54005 91.0116 3.41428 90.2634C2.27182 89.5041 1.79523 88.7948 1.79523 88.1611C1.79523 87.5275 2.27182 86.8182 3.41428 86.0589C4.54005 85.3107 6.22345 84.5753 8.42531 83.8673C12.8241 82.4529 19.2078 81.174 27.1183 80.0982C42.9341 77.9472 64.7947 76.6156 88.9489 76.6156C113.103 76.6156 134.964 77.9472 150.779 80.0982C158.69 81.174 165.074 82.4529 169.472 83.8673C171.674 84.5753 173.358 85.3107 174.483 86.0589C175.626 86.8182 176.103 87.5275 176.103 88.1611C176.103 88.7948 175.626 89.5041 174.483 90.2634C173.358 91.0116 171.674 91.747 169.472 92.455C165.074 93.8694 158.69 95.1483 150.779 96.2241C134.964 98.3751 113.103 99.7067 88.9489 99.7067Z" stroke="black" stroke-width="0.711458"/>
<path d="M87.8987 76.6154C112.053 76.6154 133.913 77.947 149.729 80.098C157.64 81.1738 164.023 82.4527 168.422 83.8671C170.624 84.5751 172.308 85.3105 173.433 86.0587C174.576 86.818 175.052 87.5273 175.052 88.1609C175.052 88.7946 174.576 89.5039 173.433 90.2632C172.308 91.0114 170.624 91.7468 168.422 92.4548C164.023 93.8692 157.64 95.1481 149.729 96.2239C133.913 98.3749 112.053 99.7065 87.8987 99.7065C63.7445 99.7065 41.884 98.3749 26.0682 96.2239C18.1577 95.1481 11.7739 93.8692 7.37515 92.4548C5.17329 91.7468 3.4899 91.0114 2.36412 90.2632C1.22166 89.5039 0.745072 88.7946 0.745072 88.1609C0.745072 87.5273 1.22166 86.818 2.36412 86.0587C3.4899 85.3105 5.17329 84.5751 7.37515 83.8671C11.7739 82.4527 18.1577 81.1738 26.0682 80.098C41.884 77.947 63.7445 76.6154 87.8987 76.6154Z" stroke="black" stroke-width="0.711458"/>
<path d="M88.9489 87.805C65.0848 87.805 43.487 86.4734 27.8615 84.3226C20.0461 83.2468 13.7395 81.9679 9.3941 80.5537C7.21898 79.8459 5.55641 79.1107 4.44472 78.3629C3.31731 77.6045 2.84535 76.8951 2.84535 76.2595C2.84535 75.6239 3.31731 74.9145 4.44472 74.1561C5.55641 73.4083 7.21898 72.6731 9.3941 71.9653C13.7395 70.5511 20.0461 69.2722 27.8615 68.1964C43.487 66.0456 65.0848 64.714 88.9489 64.714C112.813 64.714 134.411 66.0456 150.036 68.1964C157.852 69.2722 164.158 70.5511 168.504 71.9653C170.679 72.6731 172.341 73.4083 173.453 74.1561C174.58 74.9145 175.052 75.6239 175.052 76.2595C175.052 76.8951 174.58 77.6045 173.453 78.3629C172.341 79.1107 170.679 79.8459 168.504 80.5538C164.158 81.9679 157.852 83.2468 150.036 84.3226C134.411 86.4735 112.813 87.805 88.9489 87.805Z" stroke="black" stroke-width="0.711458"/>
<path d="M87.8988 88.5161C111.763 88.5161 133.361 89.8477 148.986 91.9986C156.802 93.0744 163.108 94.3532 167.454 95.7674C169.629 96.4753 171.291 97.2105 172.403 97.9583C173.53 98.7167 174.002 99.426 174.002 100.062C174.002 100.697 173.53 101.407 172.403 102.165C171.291 102.913 169.629 103.648 167.454 104.356C163.108 105.77 156.802 107.049 148.986 108.125C133.361 110.276 111.763 111.607 87.8988 111.607C64.0347 111.607 42.4369 110.276 26.8114 108.125C18.996 107.049 12.6894 105.77 8.344 104.356C6.16887 103.648 4.5063 102.913 3.39461 102.165C2.2672 101.407 1.79524 100.697 1.79524 100.062C1.79524 99.426 2.2672 98.7167 3.39461 97.9583C4.5063 97.2105 6.16887 96.4753 8.344 95.7674C12.6894 94.3532 18.996 93.0744 26.8114 91.9986C42.4369 89.8477 64.0347 88.5161 87.8988 88.5161Z" stroke="black" stroke-width="0.711458"/>
<path d="M88.9489 75.9034C65.7618 75.9034 44.777 74.5718 29.5955 72.4211C22.002 71.3454 15.8754 70.0667 11.6547 68.6531C9.54199 67.9454 7.92798 67.2108 6.84915 66.4639C5.75676 65.7076 5.29562 64.9983 5.29562 64.3579C5.29562 63.7174 5.75676 63.0081 6.84915 62.2518C7.92798 61.5049 9.54199 60.7703 11.6547 60.0627C15.8754 58.649 22.002 57.3703 29.5955 56.2946C44.777 54.1439 65.7618 52.8123 88.9489 52.8123C112.136 52.8123 133.121 54.1439 148.302 56.2946C155.896 57.3703 162.022 58.649 166.243 60.0627C168.356 60.7703 169.97 61.5049 171.049 62.2518C172.141 63.0081 172.602 63.7174 172.602 64.3579C172.602 64.9983 172.141 65.7076 171.049 66.4639C169.97 67.2108 168.356 67.9454 166.243 68.6531C162.022 70.0667 155.896 71.3454 148.302 72.4211C133.121 74.5718 112.136 75.9034 88.9489 75.9034Z" stroke="black" stroke-width="0.711458"/>
<path d="M87.8988 100.418C111.086 100.418 132.071 101.749 147.252 103.9C154.846 104.976 160.972 106.254 165.193 107.668C167.306 108.376 168.92 109.11 169.999 109.857C171.091 110.614 171.552 111.323 171.552 111.963C171.552 112.604 171.091 113.313 169.999 114.069C168.92 114.816 167.306 115.551 165.193 116.259C160.972 117.672 154.846 118.951 147.252 120.027C132.071 122.177 111.086 123.509 87.8988 123.509C64.7116 123.509 43.7269 122.177 28.5453 120.027C20.9519 118.951 14.8253 117.672 10.6046 116.259C8.49187 115.551 6.87786 114.816 5.79902 114.069C4.70663 113.313 4.2455 112.604 4.2455 111.963C4.2455 111.323 4.70663 110.614 5.79902 109.857C6.87785 109.11 8.49187 108.376 10.6046 107.668C14.8253 106.254 20.9519 104.976 28.5453 103.9C43.7269 101.749 64.7116 100.418 87.8988 100.418Z" stroke="black" stroke-width="0.711458"/>
<path d="M88.9486 64.0027C66.922 64.0027 46.9883 62.6712 32.5679 60.5208C25.355 59.4452 19.5371 58.1669 15.5301 56.7542C13.5244 56.047 11.9936 55.3134 10.971 54.5682C9.93831 53.8156 9.49582 53.106 9.49582 52.4571C9.49582 51.8083 9.93831 51.0987 10.971 50.3461C11.9936 49.6009 13.5244 48.8673 15.5301 48.1601C19.5371 46.7474 25.355 45.4691 32.5679 44.3935C46.9883 42.2431 66.9221 40.9116 88.9486 40.9116C110.975 40.9116 130.909 42.2431 145.329 44.3935C152.542 45.4691 158.36 46.7474 162.367 48.1601C164.373 48.8673 165.904 49.6009 166.926 50.3461C167.959 51.0987 168.401 51.8083 168.401 52.4572C168.401 53.106 167.959 53.8156 166.926 54.5682C165.904 55.3134 164.373 56.047 162.367 56.7542C158.36 58.1669 152.542 59.4452 145.329 60.5208C130.909 62.6712 110.975 64.0027 88.9486 64.0027Z" stroke="black" stroke-width="0.711458"/>
<path d="M87.899 112.318C109.926 112.318 129.859 113.65 144.28 115.8C151.493 116.876 157.311 118.154 161.318 119.567C163.323 120.274 164.854 121.008 165.877 121.753C166.909 122.506 167.352 123.215 167.352 123.864C167.352 124.513 166.909 125.222 165.877 125.975C164.854 126.72 163.323 127.454 161.318 128.161C157.311 129.574 151.493 130.852 144.28 131.928C129.859 134.078 109.926 135.41 87.899 135.41C65.8724 135.41 45.9386 134.078 31.5183 131.928C24.3054 130.852 18.4875 129.574 14.4805 128.161C12.4748 127.454 10.944 126.72 9.92139 125.975C8.88868 125.222 8.44618 124.513 8.44618 123.864C8.44618 123.215 8.88868 122.506 9.92139 121.753C10.944 121.008 12.4748 120.274 14.4805 119.567C18.4875 118.154 24.3054 116.876 31.5183 115.8C45.9386 113.65 65.8724 112.318 87.899 112.318Z" stroke="black" stroke-width="0.711458"/>
<path d="M88.9488 52.1011C68.8566 52.1011 50.6747 50.7697 37.5233 48.6199C30.9447 47.5446 25.6414 46.267 21.9908 44.8562C20.1637 44.1501 18.7714 43.4183 17.8422 42.6761C16.9078 41.9296 16.4967 41.2188 16.4967 40.5555C16.4967 39.8922 16.9078 39.1814 17.8422 38.4349C18.7714 37.6927 20.1637 36.9609 21.9908 36.2548C25.6414 34.844 30.9447 33.5664 37.5233 32.4911C50.6747 30.3413 68.8566 29.01 88.9488 29.01C109.041 29.01 127.223 30.3414 140.374 32.4911C146.953 33.5664 152.256 34.844 155.907 36.2548C157.734 36.9609 159.126 37.6927 160.055 38.4349C160.99 39.1814 161.401 39.8922 161.401 40.5555C161.401 41.2188 160.99 41.9297 160.055 42.6761C159.126 43.4183 157.734 44.1501 155.907 44.8562C152.256 46.2671 146.953 47.5446 140.374 48.6199C127.223 50.7697 109.041 52.1011 88.9488 52.1011Z" stroke="black" stroke-width="0.711458"/>
<path d="M87.8989 124.22C107.991 124.22 126.173 125.552 139.324 127.701C145.903 128.777 151.206 130.054 154.857 131.465C156.684 132.171 158.076 132.903 159.005 133.645C159.94 134.392 160.351 135.102 160.351 135.766C160.351 136.429 159.94 137.14 159.005 137.886C158.076 138.628 156.684 139.36 154.857 140.066C151.206 141.477 145.903 142.755 139.324 143.83C126.173 145.98 107.991 147.311 87.8989 147.311C67.8067 147.311 49.6248 145.98 36.4734 143.83C29.8948 142.755 24.5915 141.477 20.9409 140.066C19.1138 139.36 17.7215 138.628 16.7923 137.886C15.8579 137.14 15.4468 136.429 15.4468 135.766C15.4468 135.102 15.8579 134.392 16.7923 133.645C17.7215 132.903 19.1138 132.171 20.9409 131.465C24.5915 130.054 29.8948 128.777 36.4734 127.701C49.6248 125.552 67.8067 124.22 87.8989 124.22Z" stroke="black" stroke-width="0.711458"/>
<path d="M89.2985 40.1999C71.9148 40.1999 56.1863 38.8687 44.812 36.7202C39.1219 35.6455 34.5396 34.3694 31.3882 32.962C29.8113 32.2578 28.6124 31.5293 27.8131 30.7915C27.0133 30.0532 26.6475 29.3388 26.6475 28.6543C26.6475 27.9699 27.0133 27.2555 27.8131 26.5172C28.6124 25.7794 29.8113 25.0508 31.3882 24.3466C34.5396 22.9393 39.1219 21.6632 44.812 20.5884C56.1863 18.4399 71.9148 17.1088 89.2985 17.1088C106.682 17.1088 122.411 18.4399 133.785 20.5884C139.475 21.6632 144.057 22.9393 147.209 24.3466C148.786 25.0508 149.985 25.7794 150.784 26.5172C151.584 27.2555 151.95 27.9699 151.95 28.6543C151.95 29.3388 151.584 30.0532 150.784 30.7915C149.985 31.5293 148.786 32.2578 147.209 32.962C144.057 34.3694 139.475 35.6455 133.785 36.7203C122.411 38.8687 106.682 40.1999 89.2985 40.1999Z" stroke="black" stroke-width="0.711458"/>
<path d="M87.5487 136.122C104.932 136.122 120.661 137.453 132.035 139.601C137.725 140.676 142.308 141.952 145.459 143.36C147.036 144.064 148.235 144.792 149.034 145.53C149.834 146.268 150.2 146.983 150.2 147.667C150.2 148.352 149.834 149.066 149.034 149.804C148.235 150.542 147.036 151.271 145.459 151.975C142.308 153.382 137.725 154.658 132.035 155.733C120.661 157.882 104.932 159.213 87.5487 159.213C70.1651 159.213 54.4366 157.882 43.0623 155.733C37.3722 154.658 32.7898 153.382 29.6384 151.975C28.0615 151.271 26.8627 150.542 26.0633 149.804C25.2635 149.066 24.8977 148.352 24.8977 147.667C24.8977 146.983 25.2635 146.268 26.0633 145.53C26.8627 144.792 28.0615 144.064 29.6384 143.36C32.7898 141.952 37.3722 140.676 43.0623 139.601C54.4366 137.453 70.1651 136.122 87.5487 136.122Z" stroke="black" stroke-width="0.711458"/>
<path d="M88.774 28.2982C75.8906 28.2982 64.239 26.9679 55.8187 24.8234C51.6059 23.7505 48.222 22.4787 45.8998 21.0804C43.5556 19.669 42.3997 18.1957 42.3997 16.7527C42.3997 15.3096 43.5556 13.8364 45.8998 12.4249C48.222 11.0267 51.6059 9.75487 55.8187 8.68193C64.239 6.53744 75.8906 5.20714 88.774 5.20714C101.657 5.20714 113.309 6.53745 121.729 8.68194C125.942 9.75487 129.326 11.0267 131.648 12.4249C133.992 13.8364 135.148 15.3096 135.148 16.7527C135.148 18.1957 133.992 19.669 131.648 21.0805C129.326 22.4787 125.942 23.7505 121.729 24.8234C113.309 26.9679 101.657 28.2982 88.774 28.2982Z" stroke="black" stroke-width="0.711458"/>
<path d="M88.0737 148.023C100.957 148.023 112.609 149.353 121.029 151.498C125.242 152.571 128.626 153.842 130.948 155.241C133.292 156.652 134.448 158.125 134.448 159.568C134.448 161.012 133.292 162.485 130.948 163.896C128.626 165.295 125.242 166.566 121.029 167.639C112.609 169.784 100.957 171.114 88.0737 171.114C75.1903 171.114 63.5386 169.784 55.1184 167.639C50.9055 166.566 47.5216 165.295 45.1994 163.896C42.8553 162.485 41.6994 161.012 41.6994 159.568C41.6994 158.125 42.8553 156.652 45.1994 155.241C47.5216 153.842 50.9055 152.571 55.1184 151.498C63.5386 149.353 75.1902 148.023 88.0737 148.023Z" stroke="black" stroke-width="0.711458"/>
<path d="M87.3738 16.3972C80.198 16.3972 73.7156 15.4988 69.039 14.055C66.6985 13.3324 64.8303 12.4793 63.5551 11.5485C62.2722 10.6121 61.6517 9.64586 61.6517 8.70207C61.6517 7.75829 62.2722 6.79201 63.5551 5.85565C64.8303 4.92483 66.6985 4.07172 69.039 3.34916C73.7156 1.90536 80.198 1.00694 87.3738 1.00694C94.5496 1.00694 101.032 1.90536 105.709 3.34916C108.049 4.07172 109.917 4.92484 111.193 5.85565C112.475 6.79201 113.096 7.75829 113.096 8.70208C113.096 9.64586 112.475 10.6121 111.193 11.5485C109.917 12.4793 108.049 13.3324 105.709 14.055C101.032 15.4988 94.5496 16.3972 87.3738 16.3972Z" stroke="black" stroke-width="0.711458"/>
<path d="M89.4739 159.924C96.6496 159.924 103.132 160.822 107.809 162.266C110.149 162.989 112.017 163.842 113.293 164.773C114.575 165.709 115.196 166.675 115.196 167.619C115.196 168.563 114.575 169.529 113.293 170.466C112.017 171.396 110.149 172.249 107.809 172.972C103.132 174.416 96.6497 175.314 89.4739 175.314C82.2981 175.314 75.8157 174.416 71.139 172.972C68.7985 172.249 66.9304 171.396 65.6551 170.466C64.3723 169.529 63.7518 168.563 63.7518 167.619C63.7518 166.675 64.3723 165.709 65.6551 164.773C66.9304 163.842 68.7985 162.989 71.139 162.266C75.8157 160.822 82.2981 159.924 89.4739 159.924Z" stroke="black" stroke-width="0.711458"/>
</svg>
