<svg width="348" height="348" viewBox="0 0 348 348" fill="none" xmlns="http://www.w3.org/2000/svg">
<circle cx="174" cy="174" r="174" fill="white"/>
<circle cx="132" cy="48" r="35" fill="#E5E5E5"/>
<circle cx="150.346" cy="112.109" r="17.5" transform="rotate(165.716 150.346 112.109)" fill="#E5E5E5"/>
<circle cx="77.5" cy="63.5" r="15.5" fill="#E5E5E5"/>
<ellipse cx="175.022" cy="97.5714" rx="8" ry="7.5" transform="rotate(165.716 175.022 97.5714)" fill="#E5E5E5"/>
<circle cx="95.5" cy="85.5" r="6.5" fill="#E5E5E5"/>
<ellipse cx="163.586" cy="89.132" rx="3" ry="3.5" transform="rotate(165.716 163.586 89.132)" fill="#E5E5E5"/>
<circle cx="173.5" cy="30.5" r="6.5" fill="#E5E5E5"/>
<circle cx="132.577" cy="125.404" r="3" transform="rotate(165.716 132.577 125.404)" fill="#E5E5E5"/>
<circle cx="185" cy="51" r="12" fill="#E5E5E5"/>
<circle cx="124.295" cy="117.194" r="6" transform="rotate(165.716 124.295 117.194)" fill="#E5E5E5"/>
<ellipse cx="75" cy="108.5" rx="16" ry="10.5" fill="#E5E5E5"/>
<ellipse rx="7.85125" ry="5.34993" transform="matrix(-0.986911 0.161264 -0.368751 -0.929528 74.7465 125.792)" fill="#E5E5E5"/>
<ellipse cx="53" cy="102.5" rx="7" ry="4.5" fill="#E5E5E5"/>
<ellipse rx="3.58914" ry="2.29283" transform="matrix(-0.986911 0.161264 -0.368751 -0.929528 94.6712 109.217)" fill="#E5E5E5"/>
<ellipse cx="53" cy="110" rx="3" ry="2" fill="#E5E5E5"/>
<ellipse rx="1.34593" ry="1.06999" transform="matrix(-0.986911 0.161264 -0.368751 -0.929528 94.6831 104.033)" fill="#E5E5E5"/>
<ellipse cx="95" cy="100" rx="3" ry="2" fill="#E5E5E5"/>
<ellipse rx="1.34593" ry="0.91713" transform="matrix(-0.986911 0.161264 -0.368751 -0.929528 74.8423 139.93)" fill="#E5E5E5"/>
<ellipse cx="103.5" cy="101.5" rx="5.5" ry="3.5" fill="#E5E5E5"/>
<ellipse rx="2.69186" ry="1.83426" transform="matrix(-0.986911 0.161264 -0.368751 -0.929528 75.1655 135.464)" fill="#E5E5E5"/>
</svg>
