<svg width="199" height="1721" viewBox="0 0 199 1721" fill="none" xmlns="http://www.w3.org/2000/svg">
<line x1="194.029" y1="754.358" x2="194.029" y2="912.738" stroke="white" stroke-opacity="0.94" stroke-width="3"/>
<line y1="-1.5" x2="158.38" y2="-1.5" transform="matrix(-4.37114e-08 -1 -1 4.37114e-08 190.956 1502.81)" stroke="white" stroke-opacity="0.94" stroke-width="3"/>
<line y1="-1.5" x2="158.38" y2="-1.5" transform="matrix(-4.37114e-08 -1 -1 4.37114e-08 192.529 1329.2)" stroke="white" stroke-opacity="0.94" stroke-width="3"/>
<line x1="194.029" y1="927.977" x2="194.029" y2="1086.36" stroke="white" stroke-opacity="0.94" stroke-width="3"/>
<line y1="-1.5" x2="79.7435" y2="-1.5" transform="matrix(-0.947153 0.320782 -0.9429 -0.333075 194.103 911.106)" stroke="white" stroke-opacity="0.94" stroke-width="3"/>
<line y1="-1.5" x2="79.7435" y2="-1.5" transform="matrix(-0.947153 -0.320781 -0.9429 0.333075 194.103 1172.45)" stroke="white" stroke-opacity="0.94" stroke-width="3"/>
<line y1="-1.5" x2="79.7435" y2="-1.5" transform="matrix(-0.947153 0.320782 -0.9429 -0.333075 194.103 1084.72)" stroke="white" stroke-opacity="0.94" stroke-width="3"/>
<line x1="120.074" y1="936.686" x2="120.074" y2="973.248" stroke="white" stroke-opacity="0.94" stroke-width="3"/>
<path d="M118.501 1007.44L118.501 1044M118.501 1199.44L118.501 1236" stroke="white" stroke-opacity="0.94" stroke-width="3"/>
<line x1="189.75" y1="1659" x2="189.75" y2="1526.25" stroke="white" stroke-opacity="0.94" stroke-width="3"/>
<line y1="-1.5" x2="36.5628" y2="-1.5" transform="matrix(-4.37114e-08 -1 -1 4.37114e-08 118.574 1146.87)" stroke="white" stroke-opacity="0.94" stroke-width="3"/>
<line x1="195.75" y1="-6.55671e-08" x2="195.75" y2="164.25" stroke="white" stroke-opacity="0.94" stroke-width="3"/>
<line y1="-1.5" x2="158.38" y2="-1.5" transform="matrix(-4.37114e-08 -1 -1 4.37114e-08 192.529 754.456)" stroke="white" stroke-opacity="0.94" stroke-width="3"/>
<line y1="-1.5" x2="158.38" y2="-1.5" transform="matrix(-4.37114e-08 -1 -1 4.37114e-08 194.103 580.837)" stroke="white" stroke-opacity="0.94" stroke-width="3"/>
<line x1="195.603" y1="179.619" x2="195.603" y2="337.999" stroke="white" stroke-opacity="0.94" stroke-width="3"/>
<line y1="-1.5" x2="79.7435" y2="-1.5" transform="matrix(-0.947153 -0.320781 -0.9429 0.333075 194.103 597.709)" stroke="white" stroke-opacity="0.94" stroke-width="3"/>
<line y1="-1.5" x2="79.7435" y2="-1.5" transform="matrix(-0.947153 -0.320781 -0.9429 0.333075 195.676 424.09)" stroke="white" stroke-opacity="0.94" stroke-width="3"/>
<line y1="-1.5" x2="79.7435" y2="-1.5" transform="matrix(-0.947153 0.320782 -0.9429 -0.333075 195.676 336.366)" stroke="white" stroke-opacity="0.94" stroke-width="3"/>
<line x1="120.074" y1="465.356" x2="120.074" y2="501.919" stroke="white" stroke-opacity="0.94" stroke-width="3"/>
<line y1="-1.5" x2="36.5628" y2="-1.5" transform="matrix(-4.37114e-08 -1 -1 4.37114e-08 118.574 572.128)" stroke="white" stroke-opacity="0.94" stroke-width="3"/>
<line y1="-1.5" x2="36.5628" y2="-1.5" transform="matrix(-4.37114e-08 -1 -1 4.37114e-08 120.147 398.509)" stroke="white" stroke-opacity="0.94" stroke-width="3"/>
<line x1="121.5" y1="1720.5" x2="121.5" y2="1526.25" stroke="white" stroke-opacity="0.94" stroke-width="3"/>
<line x1="63" y1="37.5003" x2="62.9999" y2="1659" stroke="white" stroke-width="3"/>
<line y1="1.4997" x2="196.5" y2="1.4997" stroke="white" stroke-width="3"/>
<line y1="1719" x2="123" y2="1719" stroke="white" stroke-width="3"/>
</svg>
