<svg width="204" height="1721" viewBox="0 0 204 1721" fill="none" xmlns="http://www.w3.org/2000/svg">
<line y1="-1.5" x2="158.38" y2="-1.5" transform="matrix(-4.37114e-08 1 1 4.37114e-08 6.9702 754.358)" stroke="white" stroke-opacity="0.94" stroke-width="3"/>
<line x1="6.74945" y1="1553.25" x2="6.74946" y2="1344.75" stroke="white" stroke-opacity="0.94" stroke-width="3"/>
<line x1="5.4702" y1="1329.2" x2="5.47021" y2="1170.82" stroke="white" stroke-opacity="0.94" stroke-width="3"/>
<line y1="-1.5" x2="158.38" y2="-1.5" transform="matrix(-4.37114e-08 1 1 4.37114e-08 6.96965 927.977)" stroke="white" stroke-opacity="0.94" stroke-width="3"/>
<line y1="-1.5" x2="79.7435" y2="-1.5" transform="matrix(0.947153 0.320782 0.9429 -0.333075 5.39641 911.106)" stroke="white" stroke-opacity="0.94" stroke-width="3"/>
<line y1="-1.5" x2="79.7435" y2="-1.5" transform="matrix(0.947153 -0.320781 0.9429 0.333075 6.96965 1346.07)" stroke="white" stroke-opacity="0.94" stroke-width="3"/>
<line y1="-1.5" x2="79.7435" y2="-1.5" transform="matrix(0.947153 -0.320781 0.9429 0.333075 5.39641 1172.45)" stroke="white" stroke-opacity="0.94" stroke-width="3"/>
<line y1="-1.5" x2="79.7435" y2="-1.5" transform="matrix(0.947153 0.320782 0.9429 -0.333075 5.39641 1084.72)" stroke="white" stroke-opacity="0.94" stroke-width="3"/>
<line y1="-1.5" x2="36.5628" y2="-1.5" transform="matrix(-4.37114e-08 1 1 4.37114e-08 80.9257 936.686)" stroke="white" stroke-opacity="0.94" stroke-width="3"/>
<line y1="-1.5" x2="36.5628" y2="-1.5" transform="matrix(-4.37114e-08 1 1 4.37114e-08 82.4993 1007.44)" stroke="white" stroke-opacity="0.94" stroke-width="3"/>
<line y1="-1.5" x2="36.5628" y2="-1.5" transform="matrix(-4.37114e-08 1 1 4.37114e-08 82.4996 1213.71)" stroke="white" stroke-opacity="0.94" stroke-width="3"/>
<line x1="80.9993" y1="1320.49" x2="80.9993" y2="1283.92" stroke="white" stroke-opacity="0.94" stroke-width="3"/>
<line x1="79.4257" y1="1146.87" x2="79.4257" y2="1110.31" stroke="white" stroke-opacity="0.94" stroke-width="3"/>
<line x1="3.75" y1="-6.55671e-08" x2="3.75001" y2="164.25" stroke="white" stroke-opacity="0.94" stroke-width="3"/>
<line x1="5.46965" y1="754.456" x2="5.46966" y2="596.076" stroke="white" stroke-opacity="0.94" stroke-width="3"/>
<line x1="3.89641" y1="580.837" x2="3.89642" y2="422.457" stroke="white" stroke-opacity="0.94" stroke-width="3"/>
<line y1="-1.5" x2="158.38" y2="-1.5" transform="matrix(-4.37114e-08 1 1 4.37114e-08 5.39696 179.619)" stroke="white" stroke-opacity="0.94" stroke-width="3"/>
<line y1="-1.5" x2="79.7435" y2="-1.5" transform="matrix(0.947153 -0.320781 0.9429 0.333075 5.39696 597.709)" stroke="white" stroke-opacity="0.94" stroke-width="3"/>
<line y1="-1.5" x2="79.7435" y2="-1.5" transform="matrix(0.947153 -0.320781 0.9429 0.333075 3.82317 424.09)" stroke="white" stroke-opacity="0.94" stroke-width="3"/>
<line y1="-1.5" x2="79.7435" y2="-1.5" transform="matrix(0.947153 0.320782 0.9429 -0.333075 3.82317 336.366)" stroke="white" stroke-opacity="0.94" stroke-width="3"/>
<line y1="-1.5" x2="36.5628" y2="-1.5" transform="matrix(-4.37114e-08 1 1 4.37114e-08 80.9257 465.356)" stroke="white" stroke-opacity="0.94" stroke-width="3"/>
<line x1="79.4257" y1="572.128" x2="79.4257" y2="535.566" stroke="white" stroke-opacity="0.94" stroke-width="3"/>
<line x1="77.852" y1="398.509" x2="77.852" y2="361.946" stroke="white" stroke-opacity="0.94" stroke-width="3"/>
<line x1="75.7494" y1="1720.5" x2="75.7494" y2="1577.25" stroke="white" stroke-opacity="0.94" stroke-width="3"/>
<line x1="76.7" y1="1578.65" x2="6.2" y2="1550.9" stroke="white" stroke-opacity="0.94" stroke-width="3"/>
<line x1="74.9999" y1="1719" x2="204" y2="1719" stroke="white" stroke-width="3"/>
<line x1="2.25" y1="1.4997" x2="204" y2="1.49968" stroke="white" stroke-width="3"/>
<line x1="134.25" y1="45.7497" x2="134.25" y2="1667.25" stroke="white" stroke-width="3"/>
</svg>
