<svg width="911" height="1748" viewBox="0 0 911 1748" fill="none" xmlns="http://www.w3.org/2000/svg">
<path d="M909.205 135.094C909.205 153.012 896.964 170.389 874.079 186.45C851.236 202.482 818.083 216.98 776.982 229.181C694.798 253.577 581.173 268.687 455.603 268.687C330.032 268.687 216.407 253.577 134.223 229.181C93.1217 216.98 59.9693 202.482 37.1259 186.45C14.2409 170.389 2 153.012 2 135.094C2 117.176 14.2409 99.7979 37.1259 83.7368C59.9693 67.7051 93.1217 53.2066 134.223 41.006C216.407 16.6104 330.032 1.5 455.603 1.5C581.173 1.5 694.798 16.6104 776.982 41.006C818.083 53.2066 851.236 67.7051 874.079 83.7368C896.964 99.7979 909.205 117.176 909.205 135.094Z" stroke="white" stroke-width="3"/>
<path d="M909.206 270.187C909.206 288.105 896.965 305.482 874.08 321.543C851.236 337.575 818.084 352.074 776.982 364.274C694.799 388.67 581.173 403.78 455.603 403.78C330.033 403.78 216.408 388.67 134.224 364.274C93.1223 352.074 59.9699 337.575 37.1265 321.543C14.2415 305.482 2.00061 288.105 2.00061 270.187C2.00061 252.269 14.2415 234.891 37.1265 218.83C59.9699 202.798 93.1223 188.3 134.224 176.099C216.408 151.704 330.033 136.593 455.603 136.593C581.173 136.593 694.799 151.704 776.982 176.099C818.084 188.3 851.236 202.798 874.08 218.83C896.965 234.891 909.206 252.269 909.206 270.187Z" stroke="white" stroke-width="3"/>
<path d="M909.206 405.281C909.206 423.199 896.965 440.576 874.08 456.637C851.236 472.669 818.084 487.168 776.982 499.368C694.799 523.764 581.173 538.874 455.603 538.874C330.033 538.874 216.408 523.764 134.224 499.368C93.1223 487.168 59.9699 472.669 37.1265 456.637C14.2415 440.576 2.00061 423.199 2.00061 405.281C2.00061 387.363 14.2415 369.985 37.1265 353.924C59.9699 337.892 93.1223 323.394 134.224 311.193C216.408 286.798 330.033 271.687 455.603 271.687C581.173 271.687 694.799 286.798 776.982 311.193C818.084 323.394 851.236 337.892 874.08 353.924C896.965 369.985 909.206 387.363 909.206 405.281Z" stroke="white" stroke-width="3"/>
<path d="M909.206 540.375C909.206 558.293 896.965 575.67 874.08 591.732C851.236 607.763 818.084 622.262 776.982 634.462C694.799 658.858 581.173 673.968 455.603 673.968C330.033 673.968 216.408 658.858 134.224 634.462C93.1223 622.262 59.9699 607.763 37.1265 591.732C14.2415 575.67 2.00061 558.293 2.00061 540.375C2.00061 522.457 14.2415 505.079 37.1265 489.018C59.9699 472.986 93.1223 458.488 134.224 446.287C216.408 421.892 330.033 406.781 455.603 406.781C581.173 406.781 694.799 421.892 776.982 446.287C818.084 458.488 851.236 472.986 874.08 489.018C896.965 505.079 909.206 522.457 909.206 540.375Z" stroke="white" stroke-width="3"/>
<path d="M909.206 675.468C909.206 693.386 896.965 710.764 874.08 726.825C851.236 742.856 818.084 757.355 776.982 769.556C694.799 793.951 581.173 809.061 455.603 809.061C330.033 809.061 216.408 793.951 134.224 769.556C93.1223 757.355 59.9699 742.856 37.1265 726.825C14.2415 710.764 2.00061 693.386 2.00061 675.468C2.00061 657.55 14.2415 640.172 37.1265 624.111C59.9699 608.079 93.1223 593.581 134.224 581.38C216.408 556.985 330.033 541.874 455.603 541.874C581.173 541.874 694.799 556.985 776.982 581.38C818.084 593.581 851.236 608.079 874.08 624.111C896.965 640.172 909.206 657.55 909.206 675.468Z" stroke="white" stroke-width="3"/>
<path d="M909.206 810.562C909.206 828.48 896.965 845.858 874.08 861.919C851.236 877.95 818.084 892.449 776.982 904.65C694.799 929.045 581.173 944.156 455.603 944.156C330.033 944.156 216.408 929.045 134.224 904.65C93.1223 892.449 59.9699 877.95 37.1265 861.919C14.2415 845.858 2.00061 828.48 2.00061 810.562C2.00061 792.644 14.2415 775.266 37.1265 759.205C59.9699 743.174 93.1223 728.675 134.224 716.474C216.408 692.079 330.033 676.968 455.603 676.968C581.173 676.968 694.799 692.079 776.982 716.474C818.084 728.675 851.236 743.174 874.08 759.205C896.965 775.266 909.206 792.644 909.206 810.562Z" stroke="white" stroke-width="3"/>
<path d="M909.206 945.655C909.206 963.573 896.965 980.951 874.08 997.012C851.236 1013.04 818.084 1027.54 776.982 1039.74C694.799 1064.14 581.173 1079.25 455.603 1079.25C330.033 1079.25 216.408 1064.14 134.224 1039.74C93.1223 1027.54 59.9699 1013.04 37.1265 997.012C14.2415 980.951 2.00061 963.573 2.00061 945.655C2.00061 927.737 14.2415 910.36 37.1265 894.298C59.9699 878.267 93.1223 863.768 134.224 851.568C216.408 827.172 330.033 812.062 455.603 812.062C581.173 812.062 694.799 827.172 776.982 851.568C818.084 863.768 851.236 878.267 874.08 894.298C896.965 910.36 909.206 927.737 909.206 945.655Z" stroke="white" stroke-width="3"/>
<path d="M909.206 1080.75C909.206 1098.67 896.965 1116.04 874.08 1132.11C851.236 1148.14 818.084 1162.64 776.982 1174.84C694.799 1199.23 581.173 1214.34 455.603 1214.34C330.033 1214.34 216.408 1199.23 134.224 1174.84C93.1223 1162.64 59.9699 1148.14 37.1265 1132.11C14.2415 1116.04 2.00061 1098.67 2.00061 1080.75C2.00061 1062.83 14.2415 1045.45 37.1265 1029.39C59.9699 1013.36 93.1223 998.862 134.224 986.662C216.408 962.266 330.033 947.156 455.603 947.156C581.173 947.156 694.799 962.266 776.982 986.662C818.084 998.862 851.236 1013.36 874.08 1029.39C896.965 1045.45 909.206 1062.83 909.206 1080.75Z" stroke="white" stroke-width="3"/>
<path d="M909.206 1215.84C909.206 1233.76 896.965 1251.14 874.08 1267.2C851.236 1283.23 818.084 1297.73 776.982 1309.93C694.799 1334.32 581.173 1349.44 455.603 1349.44C330.033 1349.44 216.408 1334.32 134.224 1309.93C93.1223 1297.73 59.9699 1283.23 37.1265 1267.2C14.2415 1251.14 2.00061 1233.76 2.00061 1215.84C2.00061 1197.92 14.2415 1180.55 37.1265 1164.48C59.9699 1148.45 93.1223 1133.95 134.224 1121.75C216.408 1097.36 330.033 1082.25 455.603 1082.25C581.173 1082.25 694.799 1097.36 776.982 1121.75C818.084 1133.95 851.236 1148.45 874.08 1164.48C896.965 1180.55 909.206 1197.92 909.206 1215.84Z" stroke="white" stroke-width="3"/>
<path d="M909.206 1350.94C909.206 1368.85 896.965 1386.23 874.08 1402.29C851.236 1418.32 818.084 1432.82 776.982 1445.02C694.799 1469.42 581.173 1484.53 455.603 1484.53C330.033 1484.53 216.408 1469.42 134.224 1445.02C93.1223 1432.82 59.9699 1418.32 37.1265 1402.29C14.2415 1386.23 2.00061 1368.85 2.00061 1350.94C2.00061 1333.02 14.2415 1315.64 37.1265 1299.58C59.9699 1283.55 93.1223 1269.05 134.224 1256.85C216.408 1232.45 330.033 1217.34 455.603 1217.34C581.173 1217.34 694.799 1232.45 776.982 1256.85C818.084 1269.05 851.236 1283.55 874.08 1299.58C896.965 1315.64 909.206 1333.02 909.206 1350.94Z" stroke="white" stroke-width="3"/>
<path d="M909.206 1477.31C909.206 1495.23 896.965 1512.61 874.08 1528.67C851.236 1544.7 818.084 1559.2 776.982 1571.4C694.799 1595.8 581.173 1610.91 455.603 1610.91C330.033 1610.91 216.408 1595.8 134.224 1571.4C93.1223 1559.2 59.9699 1544.7 37.1265 1528.67C14.2415 1512.61 2.00061 1495.23 2.00061 1477.31C2.00061 1459.4 14.2415 1442.02 37.1265 1425.96C59.9699 1409.93 93.1223 1395.43 134.224 1383.23C216.408 1358.83 330.033 1343.72 455.603 1343.72C581.173 1343.72 694.799 1358.83 776.982 1383.23C818.084 1395.43 851.236 1409.93 874.08 1425.96C896.965 1442.02 909.206 1459.4 909.206 1477.31Z" stroke="white" stroke-width="3"/>
<path d="M909.206 1612.41C909.206 1630.32 896.965 1647.7 874.08 1663.76C851.236 1679.8 818.084 1694.29 776.982 1706.49C694.799 1730.89 581.173 1746 455.603 1746C330.033 1746 216.408 1730.89 134.224 1706.49C93.1223 1694.29 59.9699 1679.8 37.1265 1663.76C14.2415 1647.7 2.00061 1630.32 2.00061 1612.41C2.00061 1594.49 14.2415 1577.11 37.1265 1561.05C59.9699 1545.02 93.1223 1530.52 134.224 1518.32C216.408 1493.92 330.033 1478.81 455.603 1478.81C581.173 1478.81 694.799 1493.92 776.982 1518.32C818.084 1530.52 851.236 1545.02 874.08 1561.05C896.965 1577.11 909.206 1594.49 909.206 1612.41Z" stroke="white" stroke-width="3"/>
</svg>
