<svg width="1214" height="2330" viewBox="0 0 1214 2330" fill="none" xmlns="http://www.w3.org/2000/svg">
<path d="M1211.61 180.125C1211.61 204.015 1195.29 227.186 1164.77 248.6C1134.31 269.976 1090.11 289.307 1035.31 305.575C925.731 338.102 774.231 358.249 606.803 358.249C439.376 358.249 287.876 338.102 178.298 305.575C123.496 289.307 79.2923 269.976 48.8345 248.6C18.3211 227.186 2 204.015 2 180.125C2 156.234 18.3211 133.064 48.8345 111.649C79.2923 90.2734 123.496 70.9422 178.298 54.6746C287.876 22.1472 439.376 2 606.803 2C774.231 2 925.731 22.1472 1035.31 54.6746C1090.11 70.9422 1134.31 90.2734 1164.77 111.649C1195.29 133.064 1211.61 156.234 1211.61 180.125Z" stroke="white" stroke-width="4"/>
<path d="M1211.61 360.249C1211.61 384.14 1195.29 407.31 1164.77 428.725C1134.31 450.1 1090.11 469.432 1035.31 485.699C925.731 518.227 774.231 538.374 606.803 538.374C439.376 538.374 287.876 518.227 178.298 485.699C123.496 469.432 79.2923 450.1 48.8345 428.725C18.3211 407.31 2 384.14 2 360.249C2 336.359 18.3211 313.188 48.8345 291.774C79.2923 270.398 123.496 251.067 178.298 234.799C287.876 202.272 439.376 182.124 606.803 182.124C774.231 182.124 925.731 202.272 1035.31 234.799C1090.11 251.067 1134.31 270.398 1164.77 291.774C1195.29 313.188 1211.61 336.359 1211.61 360.249Z" stroke="white" stroke-width="4"/>
<path d="M1211.61 540.374C1211.61 564.265 1195.29 587.435 1164.77 608.85C1134.31 630.226 1090.11 649.557 1035.31 665.824C925.731 698.352 774.231 718.499 606.803 718.499C439.376 718.499 287.876 698.352 178.298 665.824C123.496 649.557 79.2923 630.226 48.8345 608.85C18.3211 587.435 2 564.265 2 540.374C2 516.484 18.3211 493.313 48.8345 471.899C79.2923 450.523 123.496 431.192 178.298 414.924C287.876 382.397 439.376 362.25 606.803 362.25C774.231 362.25 925.731 382.397 1035.31 414.924C1090.11 431.192 1134.31 450.523 1164.77 471.899C1195.29 493.313 1211.61 516.484 1211.61 540.374Z" stroke="white" stroke-width="4"/>
<path d="M1211.61 720.499C1211.61 744.39 1195.29 767.56 1164.77 788.975C1134.31 810.351 1090.11 829.682 1035.31 845.95C925.731 878.477 774.231 898.624 606.803 898.624C439.376 898.624 287.876 878.477 178.298 845.95C123.496 829.682 79.2923 810.351 48.8345 788.975C18.3211 767.56 2 744.39 2 720.499C2 696.609 18.3211 673.439 48.8345 652.024C79.2923 630.648 123.496 611.317 178.298 595.049C287.876 562.522 439.376 542.375 606.803 542.375C774.231 542.375 925.731 562.522 1035.31 595.049C1090.11 611.317 1134.31 630.648 1164.77 652.024C1195.29 673.439 1211.61 696.609 1211.61 720.499Z" stroke="white" stroke-width="4"/>
<path d="M1211.61 900.624C1211.61 924.515 1195.29 947.685 1164.77 969.1C1134.31 990.475 1090.11 1009.81 1035.31 1026.07C925.731 1058.6 774.231 1078.75 606.803 1078.75C439.376 1078.75 287.876 1058.6 178.298 1026.07C123.496 1009.81 79.2923 990.475 48.8345 969.1C18.3211 947.685 2 924.515 2 900.624C2 876.733 18.3211 853.563 48.8345 832.148C79.2923 810.773 123.496 791.441 178.298 775.174C287.876 742.646 439.376 722.499 606.803 722.499C774.231 722.499 925.731 742.646 1035.31 775.174C1090.11 791.441 1134.31 810.773 1164.77 832.148C1195.29 853.563 1211.61 876.733 1211.61 900.624Z" stroke="white" stroke-width="4"/>
<path d="M1211.61 1080.75C1211.61 1104.64 1195.29 1127.81 1164.77 1149.22C1134.31 1170.6 1090.11 1189.93 1035.31 1206.2C925.731 1238.73 774.231 1258.87 606.803 1258.87C439.376 1258.87 287.876 1238.73 178.298 1206.2C123.496 1189.93 79.2923 1170.6 48.8345 1149.22C18.3211 1127.81 2 1104.64 2 1080.75C2 1056.86 18.3211 1033.69 48.8345 1012.27C79.2923 990.898 123.496 971.567 178.298 955.299C287.876 922.772 439.376 902.624 606.803 902.624C774.231 902.624 925.731 922.772 1035.31 955.299C1090.11 971.567 1134.31 990.898 1164.77 1012.27C1195.29 1033.69 1211.61 1056.86 1211.61 1080.75Z" stroke="white" stroke-width="4"/>
<path d="M1211.61 1260.87C1211.61 1284.76 1195.29 1307.93 1164.77 1329.35C1134.31 1350.73 1090.11 1370.06 1035.31 1386.32C925.731 1418.85 774.231 1439 606.803 1439C439.376 1439 287.876 1418.85 178.298 1386.32C123.496 1370.06 79.2923 1350.73 48.8345 1329.35C18.3211 1307.93 2 1284.76 2 1260.87C2 1236.98 18.3211 1213.81 48.8345 1192.4C79.2923 1171.02 123.496 1151.69 178.298 1135.42C287.876 1102.9 439.376 1082.75 606.803 1082.75C774.231 1082.75 925.731 1102.9 1035.31 1135.42C1090.11 1151.69 1134.31 1171.02 1164.77 1192.4C1195.29 1213.81 1211.61 1236.98 1211.61 1260.87Z" stroke="white" stroke-width="4"/>
<path d="M1211.61 1441C1211.61 1464.89 1195.29 1488.06 1164.77 1509.47C1134.31 1530.85 1090.11 1550.18 1035.31 1566.45C925.731 1598.98 774.231 1619.12 606.803 1619.12C439.376 1619.12 287.876 1598.98 178.298 1566.45C123.496 1550.18 79.2923 1530.85 48.8345 1509.47C18.3211 1488.06 2 1464.89 2 1441C2 1417.11 18.3211 1393.94 48.8345 1372.52C79.2923 1351.15 123.496 1331.82 178.298 1315.55C287.876 1283.02 439.376 1262.87 606.803 1262.87C774.231 1262.87 925.731 1283.02 1035.31 1315.55C1090.11 1331.82 1134.31 1351.15 1164.77 1372.52C1195.29 1393.94 1211.61 1417.11 1211.61 1441Z" stroke="white" stroke-width="4"/>
<path d="M1211.61 1621.12C1211.61 1645.01 1195.29 1668.18 1164.77 1689.6C1134.31 1710.97 1090.11 1730.3 1035.31 1746.57C925.731 1779.1 774.231 1799.25 606.803 1799.25C439.376 1799.25 287.876 1779.1 178.298 1746.57C123.496 1730.3 79.2923 1710.97 48.8345 1689.6C18.3211 1668.18 2 1645.01 2 1621.12C2 1597.23 18.3211 1574.06 48.8345 1552.65C79.2923 1531.27 123.496 1511.94 178.298 1495.67C287.876 1463.14 439.376 1443 606.803 1443C774.231 1443 925.731 1463.14 1035.31 1495.67C1090.11 1511.94 1134.31 1531.27 1164.77 1552.65C1195.29 1574.06 1211.61 1597.23 1211.61 1621.12Z" stroke="white" stroke-width="4"/>
<path d="M1211.61 1801.25C1211.61 1825.14 1195.29 1848.31 1164.77 1869.72C1134.31 1891.1 1090.11 1910.43 1035.31 1926.7C925.731 1959.22 774.231 1979.37 606.803 1979.37C439.376 1979.37 287.876 1959.22 178.298 1926.7C123.496 1910.43 79.2923 1891.1 48.8345 1869.72C18.3211 1848.31 2 1825.14 2 1801.25C2 1777.36 18.3211 1754.19 48.8345 1732.77C79.2923 1711.4 123.496 1692.06 178.298 1675.8C287.876 1643.27 439.376 1623.12 606.803 1623.12C774.231 1623.12 925.731 1643.27 1035.31 1675.8C1090.11 1692.06 1134.31 1711.4 1164.77 1732.77C1195.29 1754.19 1211.61 1777.36 1211.61 1801.25Z" stroke="white" stroke-width="4"/>
<path d="M1211.61 1969.75C1211.61 1993.64 1195.29 2016.81 1164.77 2038.23C1134.31 2059.6 1090.11 2078.93 1035.31 2095.2C925.731 2127.73 774.231 2147.88 606.803 2147.88C439.376 2147.88 287.876 2127.73 178.298 2095.2C123.496 2078.93 79.2923 2059.6 48.8345 2038.23C18.3211 2016.81 2 1993.64 2 1969.75C2 1945.86 18.3211 1922.69 48.8345 1901.28C79.2923 1879.9 123.496 1860.57 178.298 1844.3C287.876 1811.77 439.376 1791.63 606.803 1791.63C774.231 1791.63 925.731 1811.77 1035.31 1844.3C1090.11 1860.57 1134.31 1879.9 1164.77 1901.28C1195.29 1922.69 1211.61 1945.86 1211.61 1969.75Z" stroke="white" stroke-width="4"/>
<path d="M1211.61 2149.88C1211.61 2173.77 1195.29 2196.94 1164.77 2218.35C1134.31 2239.73 1090.11 2259.06 1035.31 2275.33C925.731 2307.85 774.231 2328 606.803 2328C439.376 2328 287.876 2307.85 178.298 2275.33C123.496 2259.06 79.2923 2239.73 48.8345 2218.35C18.3211 2196.94 2 2173.77 2 2149.88C2 2125.98 18.3211 2102.81 48.8345 2081.4C79.2923 2060.02 123.496 2040.69 178.298 2024.43C287.876 1991.9 439.376 1971.75 606.803 1971.75C774.231 1971.75 925.731 1991.9 1035.31 2024.43C1090.11 2040.69 1134.31 2060.02 1164.77 2081.4C1195.29 2102.81 1211.61 2125.98 1211.61 2149.88Z" stroke="white" stroke-width="4"/>
</svg>
